<?xml version="1.0" encoding="utf-8"?>
<!-- Generator: Adobe Illustrator 24.0.0, SVG Export Plug-In . SVG Version: 6.00 Build 0)  -->
<svg version="1.1" id="Layer_1" xmlns="http://www.w3.org/2000/svg" xmlns:xlink="http://www.w3.org/1999/xlink" x="0px" y="0px"
	 viewBox="0 0 1300.6 408.8" style="enable-background:new 0 0 1300.6 408.8;" xml:space="preserve">
<style type="text/css">
	.st0{fill:#2B345D;}
	.st1{fill:#363636;}
	.st2{font-family:'Lato-Heavy';}
	.st3{font-size:64.9014px;}
</style>
<g>
	<path class="st0" d="M249.5,111H69.8v47.8h209.1v-18.4C278.9,124.1,265.7,111,249.5,111z"/>
	<rect x="131" y="180.5" class="st0" width="147.8" height="47.8"/>
	<path class="st0" d="M69.8,297.8h179.5c16.3,0,29.6-13.2,29.6-29.6V250H69.8V297.8z"/>
</g>
<g>
	<path class="st1" d="M369,176.7h-24.3v69.3h-17.2v-69.3h-24.3v-13.9H369V176.7z"/>
	<path class="st1" d="M450.6,162.8v83.1h-17.3v-35.8h-36.6v35.8h-17.3v-83.1h17.3v35.3h36.6v-35.3H450.6z"/>
	<path class="st1" d="M534.3,245.9h-15.5c-2.9,0-5-1.1-6.3-3.3l-15.8-25.5c-0.6-1-1.4-1.7-2.1-2.2c-0.8-0.5-1.9-0.7-3.5-0.7h-5.8
		v31.7H468v-83.1h26.1c5.8,0,10.8,0.6,14.9,1.8c4.1,1.2,7.5,2.9,10.1,5c2.6,2.1,4.6,4.7,5.8,7.6c1.2,3,1.8,6.2,1.8,9.8
		c0,2.8-0.4,5.4-1.2,7.8c-0.8,2.5-1.9,4.7-3.4,6.7c-1.5,2-3.3,3.8-5.5,5.4c-2.2,1.6-4.7,2.8-7.4,3.8c1.1,0.6,2.1,1.3,3.1,2.2
		c1,0.9,1.8,1.9,2.6,3.1L534.3,245.9z M494.1,202.2c2.8,0,5.2-0.4,7.2-1.1c2-0.7,3.7-1.7,5-2.9c1.3-1.2,2.3-2.7,2.9-4.4
		c0.6-1.7,0.9-3.5,0.9-5.5c0-3.9-1.3-7-3.9-9.2c-2.6-2.2-6.6-3.3-11.9-3.3h-8.9v26.3H494.1z"/>
	<path class="st1" d="M559.8,176.3v21.4h27.7v13h-27.7v21.8h35.6v13.5h-52.9v-83.1h52.9v13.5H559.8z"/>
	<path class="st1" d="M625.6,176.3v21.4h27.7v13h-27.7v21.8h35.6v13.5h-52.9v-83.1h52.9v13.5H625.6z"/>
	<path class="st1" d="M691.3,176.3v23h29.9v13.5h-29.9v33.2H674v-83.1H727v13.5H691.3z"/>
	<path class="st1" d="M818.5,204.3c0,6.1-1,11.7-3.1,16.9s-4.9,9.7-8.7,13.5c-3.7,3.8-8.2,6.8-13.4,8.9c-5.2,2.2-11,3.2-17.4,3.2
		s-12.2-1.1-17.4-3.2c-5.2-2.2-9.7-5.1-13.5-8.9c-3.7-3.8-6.6-8.3-8.7-13.5c-2-5.2-3.1-10.8-3.1-16.9c0-6.1,1-11.7,3.1-16.9
		c2-5.2,4.9-9.7,8.7-13.4c3.7-3.8,8.2-6.8,13.5-8.9c5.2-2.2,11-3.2,17.4-3.2s12.2,1.1,17.4,3.2c5.2,2.2,9.7,5.1,13.4,8.9
		c3.7,3.8,6.6,8.3,8.7,13.5C817.5,192.7,818.5,198.3,818.5,204.3z M800.9,204.3c0-4.4-0.6-8.3-1.7-11.7c-1.1-3.5-2.8-6.4-5-8.8
		c-2.2-2.4-4.8-4.3-7.9-5.6c-3.1-1.3-6.6-1.9-10.5-1.9s-7.4,0.6-10.5,1.9s-5.7,3.1-7.9,5.6c-2.2,2.4-3.8,5.4-5,8.8
		c-1.1,3.5-1.7,7.4-1.7,11.7c0,4.4,0.6,8.3,1.7,11.8c1.1,3.5,2.8,6.4,5,8.8c2.2,2.4,4.8,4.3,7.9,5.5c3.1,1.3,6.6,1.9,10.5,1.9
		s7.4-0.6,10.5-1.9c3.1-1.3,5.7-3.1,7.9-5.5c2.2-2.4,3.8-5.3,5-8.8C800.3,212.7,800.9,208.7,800.9,204.3z"/>
	<path class="st1" d="M880.5,232v14h-49.3v-83.1h17.2V232H880.5z"/>
	<path class="st1" d="M965.5,204.3c0,6.1-1,11.7-3.1,16.8c-2,5.1-4.9,9.5-8.7,13.2c-3.7,3.7-8.2,6.5-13.4,8.6
		c-5.2,2.1-11,3.1-17.4,3.1h-32v-83.1h32c6.4,0,12.2,1,17.4,3.1c5.2,2.1,9.7,4.9,13.4,8.6c3.7,3.7,6.6,8.1,8.7,13.2
		C964.5,192.8,965.5,198.3,965.5,204.3z M947.8,204.3c0-4.4-0.6-8.3-1.7-11.7c-1.1-3.5-2.8-6.4-4.9-8.8c-2.1-2.4-4.8-4.3-7.8-5.6
		c-3.1-1.3-6.6-2-10.5-2h-14.7v56.2h14.7c3.9,0,7.4-0.6,10.5-1.9c3.1-1.3,5.7-3.1,7.8-5.6c2.1-2.4,3.8-5.4,4.9-8.9
		C947.3,212.7,947.8,208.7,947.8,204.3z"/>
</g>
<text transform="matrix(1 0 0 1 967.256 245.1151)" class="st1 st2 st3">.TECH</text>
</svg>
