<svg id="Layer_1" data-name="Layer 1" xmlns="http://www.w3.org/2000/svg" viewBox="0 0 566.93 566.93"><defs><style>.cls-1{fill:#4371b5;}.cls-2{fill:#7eb78e;}.cls-3{fill:#cccbcb;}</style></defs><title>3alone</title><path class="cls-1" d="M101.11,121.1H445.77a18.37,18.37,0,0,1,18.37,18.37V204a0,0,0,0,1,0,0h-363a0,0,0,0,1,0,0V121.1a0,0,0,0,1,0,0Z"/><rect class="cls-2" x="207.36" y="241.81" width="256.66" height="82.93"/><path class="cls-3" d="M101.11,362.52h363a0,0,0,0,1,0,0v64.56a18.37,18.37,0,0,1-18.37,18.37H101.11a0,0,0,0,1,0,0V362.52a0,0,0,0,1,0,0Z"/></svg>