<svg id="Layer_1" data-name="Layer 1" xmlns="http://www.w3.org/2000/svg" viewBox="0 0 1024 584.52"><defs><style>.cls-1{fill:#fff;}.cls-2{fill:#f8f8f8;}.cls-3{fill:#eaebec;}.cls-4{fill:#dbdcdd;}.cls-5{fill:#a6a8aa;}.cls-6{fill:#8cc5ae;}.cls-7{fill:#80b3a0;}</style></defs><title>bettertoken</title><path class="cls-1" d="M162.7,429.37A24.85,24.85,0,0,1,155,447.94a25.66,25.66,0,0,1-18.68,7.72H96.87a4.47,4.47,0,0,1-4.51-4.52V378.47a4.36,4.36,0,0,1,1.31-3.2,4.48,4.48,0,0,1,3.2-1.32H136.3A25.69,25.69,0,0,1,155,381.66a25.91,25.91,0,0,1,3.15,33.15A25,25,0,0,1,162.7,429.37Zm-47.77-25.48c0,.76.36,1.14,1.09,1.14h20.22a3.8,3.8,0,0,0,2.92-1.31,4.72,4.72,0,0,0,0-6.4,3.76,3.76,0,0,0-2.92-1.37H116c-.73,0-1.09.38-1.09,1.14Zm0,28.63c0,.76.36,1.14,1.09,1.14h20.22a3.76,3.76,0,0,0,2.92-1.37,4.72,4.72,0,0,0,0-6.4,3.8,3.8,0,0,0-2.92-1.31H116c-.73,0-1.09.38-1.09,1.14Z"/><path class="cls-1" d="M233.15,433a4.47,4.47,0,0,1,4.51,4.51v13.65a4.49,4.49,0,0,1-1.31,3.21,4.38,4.38,0,0,1-3.2,1.31H171.84a4.47,4.47,0,0,1-4.51-4.52V378.47a4.36,4.36,0,0,1,1.31-3.2,4.48,4.48,0,0,1,3.2-1.32h61.31a4.49,4.49,0,0,1,4.51,4.52v13.65a4.49,4.49,0,0,1-4.51,4.52h-42a1,1,0,0,0-1.14,1.14v6.8a1,1,0,0,0,1.14,1.14H218a4.38,4.38,0,0,1,3.2,1.31,4.48,4.48,0,0,1,1.37,3.26v9a4.48,4.48,0,0,1-1.37,3.26,4.38,4.38,0,0,1-3.2,1.31H191.15A1,1,0,0,0,190,425v6.8a1,1,0,0,0,1.14,1.15Z"/><path class="cls-1" d="M271.66,455.66a4.47,4.47,0,0,1-4.51-4.52V397.78a1,1,0,0,0-1.14-1.14H246.69a4.48,4.48,0,0,1-3.2-1.32,4.36,4.36,0,0,1-1.31-3.2V378.47a4.36,4.36,0,0,1,1.31-3.2,4.48,4.48,0,0,1,3.2-1.32h63.6a4.49,4.49,0,0,1,4.51,4.52v13.65a4.49,4.49,0,0,1-4.51,4.52H291a1,1,0,0,0-1.14,1.14v53.36a4.53,4.53,0,0,1-1.31,3.21,4.38,4.38,0,0,1-3.2,1.31Z"/><path class="cls-1" d="M348.8,455.66a4.47,4.47,0,0,1-4.51-4.52V397.78a1,1,0,0,0-1.14-1.14H323.83a4.48,4.48,0,0,1-3.2-1.32,4.36,4.36,0,0,1-1.31-3.2V378.47a4.36,4.36,0,0,1,1.31-3.2,4.48,4.48,0,0,1,3.2-1.32h63.6a4.49,4.49,0,0,1,4.51,4.52v13.65a4.49,4.49,0,0,1-4.51,4.52H368.12a1,1,0,0,0-1.15,1.14v53.36a4.53,4.53,0,0,1-1.31,3.21,4.38,4.38,0,0,1-3.2,1.31Z"/><path class="cls-1" d="M462.28,433a4.47,4.47,0,0,1,4.51,4.51v13.65a4.49,4.49,0,0,1-1.31,3.21,4.38,4.38,0,0,1-3.2,1.31H401a4.47,4.47,0,0,1-4.51-4.52V378.47a4.36,4.36,0,0,1,1.31-3.2A4.48,4.48,0,0,1,401,374h61.31a4.49,4.49,0,0,1,4.51,4.52v13.65a4.49,4.49,0,0,1-4.51,4.52h-42a1,1,0,0,0-1.15,1.14v6.8a1,1,0,0,0,1.15,1.14h26.85a4.38,4.38,0,0,1,3.2,1.31,4.48,4.48,0,0,1,1.37,3.26v9a4.48,4.48,0,0,1-1.37,3.26,4.38,4.38,0,0,1-3.2,1.31H420.29a1,1,0,0,0-1.15,1.14v6.8a1,1,0,0,0,1.15,1.15Z"/><path class="cls-1" d="M495.14,435.2a1,1,0,0,0-1.15,1.15v14.79a4.49,4.49,0,0,1-1.31,3.21,4.38,4.38,0,0,1-3.2,1.31H475.82a4.47,4.47,0,0,1-4.51-4.52V378.47a4.36,4.36,0,0,1,1.31-3.2,4.48,4.48,0,0,1,3.2-1.32h34.91a29.94,29.94,0,0,1,21.77,8.92,29,29,0,0,1,9.15,21.59,30,30,0,0,1-4,15.32,30.73,30.73,0,0,1-10.74,11l10.68,18a4.52,4.52,0,0,1-3.89,6.86H517.88a4.24,4.24,0,0,1-3.89-2.23l-10.45-17.66a1.09,1.09,0,0,0-1-.57Zm0-38.56a1,1,0,0,0-1.15,1.14v13.6a1,1,0,0,0,1.15,1.14H511a7.67,7.67,0,0,0,5.71-2.4,7.45,7.45,0,0,0,2.23-5.71,7.37,7.37,0,0,0-2.46-5.49,7.72,7.72,0,0,0-5.59-2.28Z"/><path class="cls-1" d="M575.7,455.66a4.47,4.47,0,0,1-4.51-4.52V397.78a1,1,0,0,0-1.14-1.14H550.73a4.48,4.48,0,0,1-3.2-1.32,4.36,4.36,0,0,1-1.31-3.2V378.47a4.36,4.36,0,0,1,1.31-3.2,4.48,4.48,0,0,1,3.2-1.32h63.6a4.49,4.49,0,0,1,4.51,4.52v13.65a4.49,4.49,0,0,1-4.51,4.52H595a1,1,0,0,0-1.14,1.14v53.36a4.53,4.53,0,0,1-1.31,3.21,4.38,4.38,0,0,1-3.2,1.31Z"/><path class="cls-1" d="M661.35,455.66a41,41,0,1,1,28.86-12A39.21,39.21,0,0,1,661.35,455.66Zm0-59A18.13,18.13,0,1,0,674.21,402,17.63,17.63,0,0,0,661.35,396.64Z"/><path class="cls-1" d="M729.69,434.52a1.2,1.2,0,0,0-.28.8v15.82a4.5,4.5,0,0,1-1.32,3.21,4.35,4.35,0,0,1-3.19,1.31H711.24a4.47,4.47,0,0,1-4.51-4.52V378.47a4.32,4.32,0,0,1,1.31-3.2,4.46,4.46,0,0,1,3.2-1.32H724.9a4.51,4.51,0,0,1,4.51,4.52v19.71a1,1,0,0,0,.74,1,1.05,1.05,0,0,0,1.26-.29l21.37-23.48a4.29,4.29,0,0,1,3.37-1.49h18.4a4.54,4.54,0,0,1,3.31,7.6l-22,24.23a1.11,1.11,0,0,0-.17,1.37l24.74,41.65a4.29,4.29,0,0,1,0,4.57,4.18,4.18,0,0,1-3.94,2.29H760.66a4.22,4.22,0,0,1-3.88-2.23l-16.69-28.11a1.05,1.05,0,0,0-.85-.57,1.12,1.12,0,0,0-1,.34Z"/><path class="cls-1" d="M852.09,433a4.47,4.47,0,0,1,4.51,4.51v13.65a4.53,4.53,0,0,1-1.31,3.21,4.39,4.39,0,0,1-3.2,1.31H790.78a4.47,4.47,0,0,1-4.51-4.52V378.47a4.32,4.32,0,0,1,1.31-3.2,4.46,4.46,0,0,1,3.2-1.32h61.31a4.49,4.49,0,0,1,4.51,4.52v13.65a4.49,4.49,0,0,1-4.51,4.52h-42a1,1,0,0,0-1.14,1.14v6.8a1,1,0,0,0,1.14,1.14H837a4.39,4.39,0,0,1,3.2,1.31,4.48,4.48,0,0,1,1.37,3.26v9a4.48,4.48,0,0,1-1.37,3.26,4.39,4.39,0,0,1-3.2,1.31H810.09A1,1,0,0,0,809,425v6.8a1,1,0,0,0,1.14,1.15Z"/><path class="cls-1" d="M885.86,419.72a1,1,0,0,0-1.26-.46,1.08,1.08,0,0,0-.8,1.09v30.79a4.53,4.53,0,0,1-1.31,3.21,4.39,4.39,0,0,1-3.2,1.31H865.63a4.47,4.47,0,0,1-4.51-4.52V378.47a4.36,4.36,0,0,1,1.31-3.2,4.48,4.48,0,0,1,3.2-1.32h13.54a4.25,4.25,0,0,1,3.72,1.94l23.82,34a1,1,0,0,0,1.26.46,1.08,1.08,0,0,0,.8-1.09V378.47a4.36,4.36,0,0,1,1.31-3.2,4.55,4.55,0,0,1,3.26-1.32h13.6a4.49,4.49,0,0,1,4.51,4.52v72.67a4.49,4.49,0,0,1-1.31,3.21,4.38,4.38,0,0,1-3.2,1.31H913.4a4.35,4.35,0,0,1-3.72-1.94Z"/><polygon class="cls-2" points="512.11 269.74 457.72 254.66 512.11 245.19 566.49 254.66 512.11 269.74"/><polygon class="cls-3" points="457.72 254.66 457.72 289.19 512.11 317.82 512.11 269.74 457.72 254.66"/><polygon class="cls-4" points="566.49 254.66 566.49 289.19 512.11 317.82 512.11 269.74 566.49 254.66"/><ellipse class="cls-5" cx="512.11" cy="258.43" rx="10.14" ry="1.94"/><path class="cls-6" d="M516.07,90.07l18.41-18.4a3.6,3.6,0,1,0-5.08-5.09L516.07,79.91V42.4a3.59,3.59,0,0,0-7.18,0V64.47L500,55.57a3.59,3.59,0,0,0-5.08,5.08l14,14v40.5a3.59,3.59,0,0,0,7.18,0Z"/><path class="cls-6" d="M462.76,143.6V117.84a3.6,3.6,0,0,0-7.19,0v18.58l-30.25-30.25a3.59,3.59,0,1,0-5.08,5.08l11.47,11.47H419a3.6,3.6,0,0,0,0,7.19H438.9l32.27,32.27a3.59,3.59,0,1,0,5.08-5.08Z"/><path class="cls-6" d="M604.23,124.12H592.15l12.35-12.35a3.59,3.59,0,1,0-5.08-5.08l-30,30V118.61a3.6,3.6,0,0,0-7.19,0v25.27l-13.74,13.74a3.6,3.6,0,0,0,0,5.08,3.57,3.57,0,0,0,5.08,0l14-14a3.51,3.51,0,0,0,1.27-1.27L585,131.31h19.27a3.6,3.6,0,1,0,0-7.19Z"/><path class="cls-7" d="M615.41,95.26c-10.76-10.75-63.07,9.45-74.27,26.76-13.87,21.43-5.6,38.72-1.64,44.9l-23.8,23.81V128.06c7.58-1.79,25.06-8.52,30.33-33.11,4.36-20.36-18.57-72.13-33.92-72.13S473.82,74.59,478.18,95c5.27,24.59,22.75,31.32,30.33,33.11v62.57l-23.76-23.77c4-6.23,12.15-23.47-1.68-44.84-11.2-17.31-63.51-37.51-74.26-26.76s9.44,63.06,26.75,74.27c20.38,13.18,37,6.35,43.93,2.24l29,29v59.46c1.12.08,2.33.13,3.6.13s2.47-.05,3.59-.13V200.89l29.08-29.08c7,4.11,23.56,10.86,43.87-2.28C606,158.32,626.16,106,615.41,95.26ZM476.25,162.18a3.6,3.6,0,0,1-5.08,0L438.9,129.91H419a3.6,3.6,0,0,1,0-7.19h12.67l-11.47-11.47a3.59,3.59,0,1,1,5.08-5.08l30.25,30.25V117.84a3.6,3.6,0,0,1,7.19,0V143.6l13.49,13.5A3.6,3.6,0,0,1,476.25,162.18Zm36.23-43.46a3.59,3.59,0,0,1-3.59-3.59V74.63l-14-14A3.59,3.59,0,0,1,500,55.57l8.91,8.9V42.4a3.59,3.59,0,0,1,7.18,0V79.91L529.4,66.58a3.6,3.6,0,1,1,5.08,5.09l-18.41,18.4v25.06A3.59,3.59,0,0,1,512.48,118.72Zm91.75,12.59H585L568.87,147.4a3.51,3.51,0,0,1-1.27,1.27l-14,14a3.57,3.57,0,0,1-5.08,0,3.6,3.6,0,0,1,0-5.08l13.74-13.74V118.61a3.6,3.6,0,0,1,7.19,0V136.7l30-30a3.59,3.59,0,1,1,5.08,5.08l-12.35,12.35h12.08a3.6,3.6,0,1,1,0,7.19Z"/><path class="cls-7" d="M182.93,496.51c3.63,0,6.44.93,8.46,2.8a10.54,10.54,0,0,1,0,14.77c-2,1.85-4.83,2.77-8.46,2.77h-7.2v10l3.8.65v2.94h-12.2v-2.94l3.8-.65V500.13l-3.8-.66v-3h15.6Zm-7.2,16.75h7.2a6.7,6.7,0,0,0,5.17-1.86,6.61,6.61,0,0,0,1.71-4.67A6.76,6.76,0,0,0,188.1,502a6.64,6.64,0,0,0-5.17-1.89h-7.2Z"/><path class="cls-7" d="M197.46,497.05v-3h8.4v32.79l3.8.65v2.94h-12.2v-2.94l3.81-.65V497.7Z"/><path class="cls-7" d="M231.19,526.74A8.14,8.14,0,0,1,223.8,531a8.11,8.11,0,0,1-6.42-2.63q-2.3-2.64-2.3-8.21V508.85l-2.9-.65v-3h7.49v14.93q0,4,1.19,5.55a4.4,4.4,0,0,0,3.71,1.52,7.6,7.6,0,0,0,4.05-1,6.21,6.21,0,0,0,2.41-2.81V508.85l-3.38-.65v-3h8v21.65l2.89.65v2.94h-7Z"/><path class="cls-7" d="M242.18,518.32q0-6.09,2.66-9.82a8.52,8.52,0,0,1,7.35-3.73,9,9,0,0,1,4.17.93,8.2,8.2,0,0,1,3,2.71l.42-3.18h3.87v24.92a10.62,10.62,0,0,1-2.73,7.71c-1.82,1.87-4.4,2.81-7.76,2.81a17.5,17.5,0,0,1-3.95-.5,15.56,15.56,0,0,1-3.73-1.37l1.19-3.57a14.8,14.8,0,0,0,6.44,1.56,5.53,5.53,0,0,0,4.51-1.72,7.48,7.48,0,0,0,1.44-4.92v-2.41a8.24,8.24,0,0,1-3,2.41,9.29,9.29,0,0,1-4,.81,8.8,8.8,0,0,1-7.3-3.36,13.76,13.76,0,0,1-2.66-8.79Zm4.6.49a10.49,10.49,0,0,0,1.6,6.11,5.58,5.58,0,0,0,4.9,2.31,6.07,6.07,0,0,0,3.48-.94,7.23,7.23,0,0,0,2.31-2.67V512a7.12,7.12,0,0,0-2.31-2.55,6.06,6.06,0,0,0-3.43-.95,5.36,5.36,0,0,0-4.92,2.75,13.7,13.7,0,0,0-1.63,7.07Z"/><path class="cls-7" d="M280.71,521.33a7.9,7.9,0,0,1,1.65-5,19.91,19.91,0,0,1,4.91-4.28,23.93,23.93,0,0,1-2.71-4.12,8.33,8.33,0,0,1-.88-3.72,7.89,7.89,0,0,1,2.27-6.07,8.76,8.76,0,0,1,6.26-2.14,8.54,8.54,0,0,1,6,2.12,6.71,6.71,0,0,1,2.31,5.11,6.5,6.5,0,0,1-1.23,4,16.27,16.27,0,0,1-3.62,3.41l-2.55,1.87,7.93,9.54a13.13,13.13,0,0,0,1.5-3.36,14.17,14.17,0,0,0,.53-3.89h4.11a17,17,0,0,1-.91,5.66,15,15,0,0,1-2.64,4.69l4.32,5.23,0,.11h-5.34l-2-2.38a14,14,0,0,1-4.13,2.14,15.08,15.08,0,0,1-4.69.73,11.64,11.64,0,0,1-8.06-2.68A8.89,8.89,0,0,1,280.71,521.33Zm11.06,6a10,10,0,0,0,3.31-.57,11.58,11.58,0,0,0,3.08-1.64L289.74,515l-.93.67a8.85,8.85,0,0,0-2.81,3,6.13,6.13,0,0,0-.69,2.61,6,6,0,0,0,1.66,4.34A6.4,6.4,0,0,0,291.77,527.37Zm-3.5-23.18a6,6,0,0,0,.63,2.57,15.18,15.18,0,0,0,1.89,2.93l3.22-2.22a4.85,4.85,0,0,0,1.81-1.92,5.41,5.41,0,0,0,.48-2.3,3.4,3.4,0,0,0-1.14-2.52,4,4,0,0,0-3-1.09A3.48,3.48,0,0,0,289.3,501,5.09,5.09,0,0,0,288.27,504.19Z"/><path class="cls-7" d="M322.58,527.53l3.81-.65V500.13l-3.81-.66v-3h26.25v8.17h-3.92l-.38-4.55H331v11.71h13.13v3.61H331v11.43l3.8.65v2.94h-12.2Z"/><path class="cls-7" d="M368.37,530.47c-.14-.68-.25-1.3-.32-1.84s-.14-1.09-.17-1.63a11,11,0,0,1-3.32,2.83A8.44,8.44,0,0,1,360.3,531q-3.94,0-6-1.92a7.06,7.06,0,0,1-2.06-5.42,6.26,6.26,0,0,1,2.91-5.54c1.93-1.3,4.59-2,8-2h4.74v-2.94a4.55,4.55,0,0,0-1.4-3.51,5.53,5.53,0,0,0-3.9-1.3,9.4,9.4,0,0,0-3,.45,5.62,5.62,0,0,0-2.13,1.21l-.49,2.66h-3.55v-4.9a13.47,13.47,0,0,1,4.18-2.2,16.24,16.24,0,0,1,5.31-.83,10.56,10.56,0,0,1,7,2.19,7.65,7.65,0,0,1,2.66,6.28v12.15c0,.32,0,.64,0,1s0,.63,0,.94l1.87.25v2.94ZM361,527.11a8.16,8.16,0,0,0,4.17-1.09,6.83,6.83,0,0,0,2.71-2.64v-4.15H363a7,7,0,0,0-4.47,1.31,3.93,3.93,0,0,0-1.64,3.17,3.12,3.12,0,0,0,1,2.53A4.68,4.68,0,0,0,361,527.11Z"/><path class="cls-7" d="M378.22,508.2v-3h7.9l.45,3.67a8.86,8.86,0,0,1,2.64-3,6.16,6.16,0,0,1,3.61-1.09,8.79,8.79,0,0,1,1.11.08,5.79,5.79,0,0,1,.87.17l-.61,4.27-2.61-.14a5.22,5.22,0,0,0-3.05.86,5.41,5.41,0,0,0-1.92,2.39v14.48l3.8.65v2.94H378.22v-2.94l3.8-.65v-18Z"/><path class="cls-7" d="M397.06,527.53l3.8-.65v-18l-3.8-.65v-3H405l.31,3.29a8.31,8.31,0,0,1,3.12-2.77,9.51,9.51,0,0,1,4.43-1,7.87,7.87,0,0,1,4.33,1.16,7.09,7.09,0,0,1,2.72,3.5,9.3,9.3,0,0,1,3.15-3.4,8.25,8.25,0,0,1,4.57-1.26,7.56,7.56,0,0,1,6.11,2.65c1.49,1.76,2.24,4.42,2.24,8v11.5l3.8.65v2.94H427.55v-2.94l3.8-.65V515.33q0-3.72-1.28-5.28a4.66,4.66,0,0,0-3.8-1.55,4.82,4.82,0,0,0-3.86,1.69,7.35,7.35,0,0,0-1.7,4.26v12.43l3.81.65v2.94h-12.2v-2.94l3.8-.65V515.33q0-3.54-1.32-5.19A4.61,4.61,0,0,0,411,508.5a6.35,6.35,0,0,0-3.45.86,5.57,5.57,0,0,0-2.08,2.43v15.09l3.8.65v2.94h-12.2Z"/><path class="cls-7" d="M482,496.51V504h-3.92l-.35-3.89h-7.53v26.75l3.8.65v2.94h-12.2v-2.94l3.8-.65V500.13H458l-.33,3.89h-3.94v-7.51Z"/><path class="cls-7" d="M484.3,527.53l3.8-.65V497.7l-3.8-.65v-3h8.4v14.5a9.24,9.24,0,0,1,3.19-2.82,8.8,8.8,0,0,1,4.2-1,8.16,8.16,0,0,1,6.3,2.42q2.24,2.43,2.24,7.47v12.22l3.8.65v2.94h-12.2v-2.94l3.8-.65V514.61a6.74,6.74,0,0,0-1.34-4.62,5.1,5.1,0,0,0-4-1.49,6.74,6.74,0,0,0-3.44.9,7.52,7.52,0,0,0-2.55,2.44v15l3.8.65v2.94H484.3Z"/><path class="cls-7" d="M515.77,508.2v-3h7.9l.45,3.67a8.88,8.88,0,0,1,2.65-3,6.13,6.13,0,0,1,3.6-1.09,8.53,8.53,0,0,1,1.11.08,5.79,5.79,0,0,1,.87.17l-.6,4.27-2.62-.14a5.22,5.22,0,0,0-3,.86,5.48,5.48,0,0,0-1.92,2.39v14.48l3.81.65v2.94h-12.2v-2.94l3.8-.65v-18Z"/><path class="cls-7" d="M546.6,531a10.63,10.63,0,0,1-8.38-3.51,13.19,13.19,0,0,1-3.12-9.11v-1a13,13,0,0,1,3.21-9,9.87,9.87,0,0,1,7.59-3.58c3.39,0,6,1,7.71,3.08a12.23,12.23,0,0,1,2.63,8.21v2.87H539.86l-.07.11a10,10,0,0,0,1.85,6,5.86,5.86,0,0,0,5,2.34,11.68,11.68,0,0,0,4.1-.66,9.63,9.63,0,0,0,3-1.83l1.8,3a11.1,11.1,0,0,1-3.58,2.21A14.53,14.53,0,0,1,546.6,531Zm-.7-22.58a5,5,0,0,0-3.94,1.95,9.16,9.16,0,0,0-2,4.89l0,.11h11.64v-.6a7.08,7.08,0,0,0-1.44-4.53A5.18,5.18,0,0,0,545.9,508.38Z"/><path class="cls-7" d="M572.29,531a10.65,10.65,0,0,1-8.39-3.51,13.18,13.18,0,0,1-3.11-9.11v-1a12.94,12.94,0,0,1,3.2-9,9.88,9.88,0,0,1,7.6-3.58c3.39,0,6,1,7.7,3.08a12.23,12.23,0,0,1,2.63,8.21v2.87H565.54l-.07.11a10,10,0,0,0,1.85,6,5.86,5.86,0,0,0,5,2.34,11.66,11.66,0,0,0,4.09-.66,9.63,9.63,0,0,0,3-1.83l1.8,3a11.1,11.1,0,0,1-3.58,2.21A14.51,14.51,0,0,1,572.29,531Zm-.7-22.58a5,5,0,0,0-4,1.95,9.23,9.23,0,0,0-2,4.89l0,.11h11.64v-.6a7.08,7.08,0,0,0-1.44-4.53A5.17,5.17,0,0,0,571.59,508.38Z"/><path class="cls-7" d="M586,527.53l3.81-.65V500.13l-3.81-.66v-3h26.25v8.17h-3.92l-.38-4.55H594.42v11.71h13.13v3.61H594.42v11.43l3.8.65v2.94H586Z"/><path class="cls-7" d="M615.67,517.62a13.88,13.88,0,0,1,3-9.22,11.22,11.22,0,0,1,16.51,0,13.85,13.85,0,0,1,3,9.24v.51a13.82,13.82,0,0,1-3,9.24,11.29,11.29,0,0,1-16.52,0,13.85,13.85,0,0,1-3-9.23Zm4.6.51a12,12,0,0,0,1.69,6.63,6.08,6.08,0,0,0,10,0,11.87,11.87,0,0,0,1.7-6.63v-.51A11.9,11.9,0,0,0,632,511a6.05,6.05,0,0,0-10,0,12.07,12.07,0,0,0-1.68,6.6Z"/><path class="cls-7" d="M641.35,497.05v-3h8.4v32.79l3.8.65v2.94h-12.2v-2.94l3.8-.65V497.7Z"/><path class="cls-7" d="M674,527.46a8,8,0,0,1-3,2.62,9.21,9.21,0,0,1-4.14.88,8.64,8.64,0,0,1-7.22-3.34,14,14,0,0,1-2.6-8.81v-.49q0-6.09,2.6-9.82a8.37,8.37,0,0,1,7.27-3.73,8.86,8.86,0,0,1,4,.83A8.21,8.21,0,0,1,673.8,508V497.7l-3.8-.65v-3h8.39v32.79l3.81.65v2.94h-7.8Zm-12.38-8.65a10.72,10.72,0,0,0,1.56,6.11,5.42,5.42,0,0,0,4.83,2.31,6.08,6.08,0,0,0,3.45-.93,7.13,7.13,0,0,0,2.31-2.64V512a7.19,7.19,0,0,0-2.31-2.52,6.09,6.09,0,0,0-3.41-.93,5.23,5.23,0,0,0-4.86,2.73,14.08,14.08,0,0,0-1.57,7.09Z"/><path class="cls-7" d="M724.58,496.51V504h-3.92l-.35-3.89h-7.53v26.75l3.8.65v2.94h-12.2v-2.94l3.8-.65V500.13h-7.56L700.3,504h-3.95v-7.51Z"/><path class="cls-7" d="M725.23,517.62a13.88,13.88,0,0,1,3-9.22,11.22,11.22,0,0,1,16.51,0,13.85,13.85,0,0,1,3,9.24v.51a13.82,13.82,0,0,1-3,9.24,11.29,11.29,0,0,1-16.52,0,13.85,13.85,0,0,1-3-9.23Zm4.6.51a12,12,0,0,0,1.69,6.63,6.08,6.08,0,0,0,10,0,11.87,11.87,0,0,0,1.71-6.63v-.51a11.91,11.91,0,0,0-1.71-6.6,6.05,6.05,0,0,0-10,0,12.07,12.07,0,0,0-1.68,6.6Z"/><path class="cls-7" d="M750.91,497.05v-3h8.4v21.08h2.94l5.39-6.67-2.31-.3v-3H775.9v3l-3.08.6-6.65,7.93L774.26,527l2.87.56v2.94H766.66v-2.94l2.35-.3-6.69-8.4h-3v8l3.8.65v2.94h-12.2v-2.94l3.81-.65V497.7Z"/><path class="cls-7" d="M791.64,531a10.67,10.67,0,0,1-8.39-3.51,13.23,13.23,0,0,1-3.11-9.11v-1a13,13,0,0,1,3.21-9,9.87,9.87,0,0,1,7.59-3.58c3.39,0,6,1,7.71,3.08a12.22,12.22,0,0,1,2.62,8.21v2.87H784.9l-.07.11a10,10,0,0,0,1.84,6,5.88,5.88,0,0,0,5,2.34,11.62,11.62,0,0,0,4.09-.66,9.68,9.68,0,0,0,3-1.83l1.79,3a11,11,0,0,1-3.58,2.21A14.47,14.47,0,0,1,791.64,531Zm-.7-22.58a5,5,0,0,0-3.94,1.95,9.24,9.24,0,0,0-2,4.89l0,.11h11.64v-.6a7,7,0,0,0-1.45-4.53A5.15,5.15,0,0,0,790.94,508.38Z"/><path class="cls-7" d="M805.12,527.53l3.8-.65v-18l-3.8-.65v-3H813l.33,3.76a9.12,9.12,0,0,1,3.16-3.11,8.4,8.4,0,0,1,4.32-1.11,8.25,8.25,0,0,1,6.32,2.39c1.5,1.59,2.24,4,2.24,7.38v12.34l3.81.65v2.94H821v-2.94l3.8-.65V514.64q0-3.35-1.32-4.74a5.29,5.29,0,0,0-4-1.4,6.46,6.46,0,0,0-3.51,1,7,7,0,0,0-2.44,2.61v14.81l3.8.65v2.94h-12.2Z"/><path class="cls-7" d="M855.86,513.17H852.4l-.74-3a6.28,6.28,0,0,0-2.11-1.27,8.13,8.13,0,0,0-2.88-.48,5.26,5.26,0,0,0-3.64,1.08,3.34,3.34,0,0,0-1.19,2.59,2.87,2.87,0,0,0,1,2.35,10.78,10.78,0,0,0,4.27,1.54,18.44,18.44,0,0,1,7.11,2.79,5.62,5.62,0,0,1,2.33,4.72,6.52,6.52,0,0,1-2.72,5.44,11.38,11.38,0,0,1-7.1,2.07,18.54,18.54,0,0,1-5.15-.66,13.65,13.65,0,0,1-4.09-1.93l0-5.76H841l.87,3.38a4.62,4.62,0,0,0,2.15,1,11.83,11.83,0,0,0,2.79.33,6.54,6.54,0,0,0,3.84-1,3.07,3.07,0,0,0,1.39-2.6,3.15,3.15,0,0,0-1.16-2.5,10.9,10.9,0,0,0-4.37-1.7,18.47,18.47,0,0,1-6.93-2.73,5.5,5.5,0,0,1-2.33-4.66,6.57,6.57,0,0,1,2.62-5.25,10.36,10.36,0,0,1,6.83-2.17,16.76,16.76,0,0,1,5.15.74,10.75,10.75,0,0,1,3.8,2.08Z"/></svg>