<svg id="Layer_1" data-name="Layer 1" xmlns="http://www.w3.org/2000/svg" viewBox="0 0 500 500"><defs><style>.cls-1{fill:#d98735;}.cls-2{fill:none;stroke:#130d0d;stroke-linecap:round;}.cls-2,.cls-3{stroke-miterlimit:10;stroke-width:8px;}.cls-3{fill:#cce5fa;stroke:#0f0b0c;}.cls-4{fill:#85afcc;}.cls-5{font-size:51.98px;fill:#222221;font-family:MyriadPro-Regular, Myriad Pro;}.cls-6{letter-spacing:-0.03em;}.cls-7{letter-spacing:0em;}.cls-8{letter-spacing:-0.01em;}.cls-9{letter-spacing:-0.02em;}</style></defs><title>icons</title><path class="cls-1" d="M337.48,252.42H214.73l-.37-3.24H159.9l-14.12,83.64c0,13.32,25.66,24.78,62.41,29.8v-.11c.43.06.84.13,1.27.18A299.57,299.57,0,0,0,250,365.32c55.89,0,101.21-14.15,101.21-31.6Z"/><path class="cls-2" d="M337.48,252.42H214.73l-.37-3.24H159.9l-14.12,83.64c0,13.32,25.66,24.78,62.41,29.8v-.11c.43.06.84.13,1.27.18A299.57,299.57,0,0,0,250,365.32c55.89,0,101.21-14.15,101.21-31.6Z"/><circle class="cls-3" cx="250" cy="174.05" r="117.45"/><path class="cls-4" d="M256.49,74c-2.69,0-5.36.12-8,.33a99.21,99.21,0,0,1,71.83,39.87c6.8,9.16-1.38,21.76-12.58,19.58a45.86,45.86,0,1,0-8.81,90.86h.41c11.39-.1,17.07,13.82,8.72,21.57a99,99,0,0,1-59.57,26.19q4,.31,8,.32a99.36,99.36,0,0,0,0-198.72Z"/><text class="cls-5" transform="translate(115.45 439)"><tspan class="cls-6">F</tspan><tspan class="cls-7" x="23.5" y="0">utu</tspan><tspan class="cls-8" x="97.98" y="0">r</tspan><tspan x="114.46" y="0">e </tspan><tspan class="cls-9" x="151.52" y="0">P</tspan><tspan class="cls-8" x="178.34" y="0">r</tspan><tspan x="194.81" y="0">oof</tspan></text></svg>