<svg id="Layer_1" data-name="Layer 1" xmlns="http://www.w3.org/2000/svg" viewBox="0 0 500 500"><defs><style>.cls-1{fill:#5b6aad;}.cls-2{fill:none;stroke:#1b1a1c;stroke-linecap:round;stroke-miterlimit:10;stroke-width:6px;}.cls-3{font-size:51.98px;fill:#222221;font-family:MyriadPro-Regular, Myriad Pro;}.cls-4{letter-spacing:0.01em;}.cls-5{letter-spacing:0em;}.cls-6{letter-spacing:-0.01em;}.cls-7{letter-spacing:-0.01em;}.cls-8{letter-spacing:0em;}</style></defs><title>icons</title><path class="cls-1" d="M250,60.43c-84.21,0-152.5,68.55-152.5,153.12A153.12,153.12,0,0,0,201.8,358.85c7.63,1.41,10.41-3.32,10.41-7.38,0-3.64-.13-13.27-.21-26-42.42,9.24-51.38-20.54-51.38-20.54-6.92-17.69-16.93-22.4-16.93-22.4-13.86-9.49,1-9.3,1-9.3C160,274.28,168.08,289,168.08,289c13.61,23.4,35.71,16.65,44.4,12.72,1.37-9.89,5.32-16.64,9.69-20.48-33.86-3.87-69.48-17-69.48-75.66a59.38,59.38,0,0,1,15.71-41.11c-1.58-3.87-6.8-19.44,1.49-40.51,0,0,12.81-4.12,41.94,15.69a143.91,143.91,0,0,1,76.38,0c29.11-19.81,41.9-15.69,41.9-15.69,8.31,21.08,3.09,36.64,1.53,40.51,9.78,10.72,15.67,24.39,15.67,41.11,0,58.81-35.65,71.76-69.63,75.55,5.47,4.73,10.35,14.07,10.35,28.35,0,20.47-.19,37-.19,42,0,4.1,2.75,8.86,10.49,7.36A153.14,153.14,0,0,0,402.52,213.55C402.52,129,334.23,60.43,250,60.43Z"/><path class="cls-2" d="M263,61q-6.42-.54-13-.54c-84.21,0-152.5,68.55-152.5,153.12A153.12,153.12,0,0,0,201.8,358.85c7.63,1.41,10.41-3.32,10.41-7.38,0-3.64-.13-13.27-.21-26-42.42,9.24-51.38-20.54-51.38-20.54-6.92-17.69-16.93-22.4-16.93-22.4-13.86-9.49,1-9.3,1-9.3C160,274.28,168.08,289,168.08,289c13.61,23.4,35.71,16.65,44.4,12.72,1.37-9.89,5.32-16.64,9.69-20.48-33.86-3.87-69.48-17-69.48-75.66a59.38,59.38,0,0,1,15.71-41.11c-1.58-3.87-6.8-19.44,1.49-40.51,0,0,12.81-4.12,41.94,15.69a143.91,143.91,0,0,1,76.38,0c29.11-19.81,41.9-15.69,41.9-15.69,8.31,21.08,3.09,36.64,1.53,40.51,9.78,10.72,15.67,24.39,15.67,41.11,0,58.81-35.65,71.76-69.63,75.55,5.47,4.73,10.35,14.07,10.35,28.35,0,20.47-.19,37-.19,42,0,4.1,2.75,8.86,10.49,7.36A153.34,153.34,0,0,0,283.77,64.19"/><text class="cls-3" transform="translate(110.05 439)">Open <tspan class="cls-4" x="131.3" y="0">S</tspan><tspan class="cls-5" x="157.23" y="0">ou</tspan><tspan class="cls-6" x="214.41" y="0">r</tspan><tspan class="cls-7" x="230.89" y="0">c</tspan><tspan class="cls-8" x="253.86" y="0">e</tspan></text></svg>