<svg id="Layer_1" data-name="Layer 1" xmlns="http://www.w3.org/2000/svg" viewBox="0 0 2891.34 2891.34"><defs><style>.cls-1{fill:#060606;}.cls-2{fill:#8cb63e;}</style></defs><title>incubaidfav</title><path class="cls-1" d="M392.8,676.49H515.15v647.4H392.8Z"/><path class="cls-1" d="M654.23,676.49H772.44l277,426v-426h123.23v647.4H1054.13L777.46,899.19v424.7H654.23Z"/><path class="cls-1" d="M1915.58,790.26l-86.19,82.17q-87.95-93-197.87-92.95-92.79,0-156.32,63.43t-63.55,156.4q0,64.76,28.14,115t79.59,78.85q51.46,28.63,114.34,28.64,53.63,0,98-20t97.62-72.91l83.55,87.18q-71.75,70-135.56,97.09t-145.67,27.07q-151,0-247.12-95.72t-96.17-245.36q0-96.83,43.79-172.08t125.43-121q81.64-45.78,175.83-45.77,80.1,0,154.26,33.83A369,369,0,0,1,1915.58,790.26Z"/><path class="cls-1" d="M2019,676.49h123.68v418.65q0,54.09,9.46,76.51t31.25,35.85q21.78,13.41,52.59,13.4,32.57,0,56.11-14.94t32.57-38q9-23.09,9-88.17V676.49h123.67v386q0,97.69-11,135.55t-42,73.06q-31,35.2-71.52,52.15t-94.18,16.94q-70.42,0-122.57-32.34t-74.6-81Q2019,1178.22,2019,1062.47Z"/><path class="cls-1" d="M401.6,2143.94v-647.4H503.39q88.58,0,129.55,11.44,58.17,15.4,92.54,57.21t34.37,98.59q0,37-15.62,67.11t-50.83,56.56q59,27.72,86.26,69.32t27.28,98.36q0,54.58-28.2,99.47t-72.69,67.11q-44.5,22.23-122.92,22.23Zm123.23-529.89v136.43h26.95q45.06,0,66.93-18.93t21.87-51.49q0-30.36-20.77-48.19t-63.16-17.82Zm0,246.46v165.92h30.89q76.78,0,103.49-19.37t26.7-56.33q0-41.81-31.33-66t-104.15-24.2Z"/><path class="cls-2" d="M1152.6,1496.54h125l249,647.4H1398.51l-50.66-133.36H1083.69L1031,2143.94H903Zm63.26,171.64L1129,1890.43h173.21Z"/><path class="cls-2" d="M1643.71,1496.54h122.35v647.4H1643.71Z"/><path class="cls-2" d="M1935.78,1496.54h146q141.15,0,209.75,35t113,113.76q44.41,78.8,44.42,184,0,74.82-24.85,137.53t-68.6,104.09q-43.76,41.37-94.76,57.21T2084,2143.94H1935.78Zm122.35,118.83v408.42h57.21q84.51,0,122.57-19.39t62.28-65.2q24.2-45.83,24.21-112.79,0-103.1-57.66-159.94-51.93-51.09-166.8-51.1Z"/></svg>