<svg id="Layer_1" data-name="Layer 1" xmlns="http://www.w3.org/2000/svg" viewBox="0 0 500 500"><defs><style>.cls-1{font-size:51.98px;fill:#222221;font-family:JosefinSans-Regular, Josefin Sans;}.cls-2{letter-spacing:-0.02em;}.cls-3{letter-spacing:0em;}.cls-4{fill:#5ca664;stroke:#130d0d;stroke-linecap:round;stroke-miterlimit:10;stroke-width:8px;stroke-dasharray:970 20;}.cls-5{fill:#e7e9ed;}.cls-6{fill:#f3d374;}.cls-7{fill:#f0d0b5;}.cls-8{fill:#060606;}</style></defs><title>logos-1</title><text class="cls-1" transform="translate(110.05 439)">Open Sou<tspan class="cls-2" x="234.58" y="0">r</tspan><tspan class="cls-3" x="253.19" y="0">ce</tspan></text><path class="cls-4" d="M268.75,261.38A18.74,18.74,0,0,1,250,280.13a17.24,17.24,0,0,1-4.69-.61l-.89.19a56.45,56.45,0,0,0-15.7-30.24l-6.85-6.84H334.38V106.69h32.81V261.38Z"/><path class="cls-4" d="M193.75,242.63v18.75H132.81V106.69h32.81V242.63Z"/><path class="cls-5" d="M250,172.32v70.31H221.87V214.51a23.35,23.35,0,0,0-23.43-23.44,4.7,4.7,0,0,0-4.69,4.68v46.88H165.62V172.32Z"/><path class="cls-5" d="M250,167.63V120.75a37.49,37.49,0,0,1,37.5-37.5h46.88V242.63H250Z"/><path class="cls-5" d="M212.5,83.25a37.49,37.49,0,0,1,37.5,37.5v51.57H165.62V83.25Z"/><path class="cls-6" d="M217.19,327v37.5H287.5V327Z"/><path class="cls-7" d="M244.42,279.71l.89-.19a17.24,17.24,0,0,0,4.69.61,18.74,18.74,0,0,0,18.75-18.75h37.5v14.77a19.62,19.62,0,0,1-1.59,7.64l-15.57,34.87a19.62,19.62,0,0,0-1.59,7.64V327H217.19a19.39,19.39,0,0,0-2.35-9L196.09,284.4a19.06,19.06,0,0,1-2.34-9.14V195.75a4.7,4.7,0,0,1,4.69-4.68,23.35,23.35,0,0,1,23.43,23.44v28.12l6.85,6.84A56.45,56.45,0,0,1,244.42,279.71Z"/><path class="cls-8" d="M292.19,359.82V326.3a14,14,0,0,1,1.21-5.71l15.52-34.91a23.49,23.49,0,0,0,2-9.53V266.07h60.94V102H339.06V78.57H287.5A42.21,42.21,0,0,0,250,101.44a42.21,42.21,0,0,0-37.5-22.87H160.94V102H128.12V266.07h60.94v9.2A23.52,23.52,0,0,0,192,286.66l18.72,33.69a14,14,0,0,1,1.77,6.83v32.64H104.68v9.38H395.32v-9.38ZM362.5,111.38V256.69H264.06v4.69A14.08,14.08,0,0,1,250,275.44a12.59,12.59,0,0,1-1.73-.22,60.83,60.83,0,0,0-15.18-27.9h106V111.38ZM170.31,87.94H212.5a32.85,32.85,0,0,1,32.81,32.81v37.5h9.38v-37.5A32.85,32.85,0,0,1,287.5,87.94h42.19v150h-75V167.63h-9.38v70.31H226.56V214.51a28.15,28.15,0,0,0-28.12-28.13,9.38,9.38,0,0,0-9.38,9.37v42.19H170.31ZM137.5,256.69V111.38h23.44V247.32h28.12v9.37Zm62.7,25.41a14.15,14.15,0,0,1-1.76-6.83V195.75a18.77,18.77,0,0,1,18.75,18.76v30.06l8.24,8.24a51.56,51.56,0,0,1,15.19,36.7H250c0-1.58-.11-3.14-.23-4.7H250a23.47,23.47,0,0,0,23-18.75h28.6v10.08a13.81,13.81,0,0,1-1.21,5.71l-15.52,34.91a23,23,0,0,0-1.6,5.55H221.32a23.62,23.62,0,0,0-2.39-6.53Zm21.67,68.35h42.19v-9.38H221.87v-9.38h60.94v9.38h-9.37v9.38h9.37v9.37H221.87Z"/><path class="cls-8" d="M287.5,200.44h9.38v9.38H287.5Z"/><path class="cls-8" d="M306.25,200.44h9.38v9.38h-9.38Z"/><path class="cls-8" d="M268.75,200.44h9.38v9.38h-9.38Z"/><path class="cls-8" d="M264.06,219.19h56.25v9.38H264.06Z"/><path class="cls-8" d="M264.06,181.69h56.25v9.38H264.06Z"/><path class="cls-8" d="M264.06,148.88h56.25v9.37H264.06Z"/><path class="cls-8" d="M264.06,130.13h56.25v9.37H264.06Z"/><path class="cls-8" d="M264.06,111.38h56.25v9.37H264.06Z"/><path class="cls-8" d="M203.12,130.13h9.38v9.37h-9.38Z"/><path class="cls-8" d="M221.87,130.13h9.38v9.37h-9.38Z"/><path class="cls-8" d="M184.37,130.13h9.38v9.37h-9.38Z"/><path class="cls-8" d="M179.69,111.38h56.25v9.37H179.69Z"/><path class="cls-8" d="M179.69,148.88h56.25v9.37H179.69Z"/><path class="cls-8" d="M179.69,167.63h56.25V177H179.69Z"/></svg>