<?xml version="1.0" encoding="utf-8"?>
<!-- Generator: Adobe Illustrator 24.0.0, SVG Export Plug-In . SVG Version: 6.00 Build 0)  -->
<svg version="1.1" id="Layer_1" xmlns="http://www.w3.org/2000/svg" xmlns:xlink="http://www.w3.org/1999/xlink" x="0px" y="0px"
	 viewBox="0 0 841.9 211.2" style="enable-background:new 0 0 841.9 211.2;" xml:space="preserve">
<style type="text/css">
	.st0{fill:#FFFFFF;}
</style>
<title>logo-CH</title>
<path class="st0" d="M75,119.8c0.4,0,0.8,0.2,1.1,0.5l2.9,3.2c-2,2.4-4.6,4.3-7.4,5.6c-3.3,1.4-6.9,2.1-10.5,2
	c-3.4,0-6.7-0.6-9.8-1.9c-2.8-1.2-5.4-3-7.5-5.2c-2.1-2.3-3.8-5-4.8-8c-1.2-3.3-1.7-6.8-1.7-10.3c0-3.5,0.6-7,1.8-10.3
	c1.1-3,2.8-5.7,5-8c2.2-2.3,4.8-4,7.7-5.2c3.2-1.3,6.5-2,10-2c3.2-0.1,6.4,0.5,9.4,1.7c2.6,1.1,5.1,2.7,7.2,4.6l-2.4,3.4
	c-0.2,0.2-0.4,0.5-0.6,0.6c-0.3,0.2-0.6,0.3-1,0.2c-0.6-0.1-1.1-0.3-1.5-0.6c-0.7-0.5-1.5-1-2.3-1.5c-1.1-0.6-2.3-1.1-3.6-1.5
	c-1.7-0.5-3.5-0.7-5.3-0.7c-2.3,0-4.6,0.4-6.8,1.3c-2,0.8-3.8,2.1-5.3,3.7c-1.6,1.7-2.7,3.8-3.5,6c-0.9,2.6-1.3,5.3-1.2,8
	c0,2.7,0.4,5.5,1.3,8.1c0.8,2.2,2,4.3,3.5,6c1.5,1.6,3.3,2.9,5.3,3.7c2.1,0.9,4.3,1.3,6.6,1.3c1.3,0,2.6-0.1,3.9-0.3
	c1.1-0.2,2.1-0.4,3.2-0.8c1-0.3,1.9-0.8,2.7-1.3c0.9-0.6,1.7-1.3,2.5-2c0.2-0.2,0.4-0.3,0.6-0.4C74.6,119.9,74.8,119.8,75,119.8z"/>
<path class="st0" d="M151.6,130.5H145c-1.2,0.1-2.3-0.5-2.9-1.6l-12.3-17.3c-0.3-0.5-0.8-0.9-1.3-1.2c-0.7-0.3-1.4-0.4-2.1-0.4h-4.9
	v20.4h-7.4V80.7h14.3c2.8,0,5.6,0.3,8.3,1c2.1,0.5,4,1.5,5.8,2.8c1.5,1.1,2.6,2.7,3.4,4.4c0.7,1.8,1.1,3.8,1.1,5.8
	c0,1.7-0.3,3.3-0.8,4.9c-0.5,1.5-1.3,2.9-2.3,4.1c-1.1,1.2-2.3,2.3-3.8,3.1c-1.6,0.9-3.2,1.6-5,2c0.9,0.6,1.7,1.4,2.3,2.3
	L151.6,130.5z M128.3,104.7c1.7,0,3.4-0.2,5-0.7c1.3-0.4,2.6-1.1,3.6-2c1-0.8,1.7-1.8,2.2-3c0.5-1.2,0.7-2.5,0.7-3.9
	c0.1-2.5-0.9-4.9-2.9-6.5c-1.9-1.5-4.7-2.2-8.5-2.2h-7v18.2H128.3z"/>
<path class="st0" d="M203,110.8v19.7h-7.4v-19.7l-18.2-30.1h6.5c0.6,0,1.1,0.1,1.6,0.5c0.4,0.3,0.8,0.8,1,1.2l10.8,18.6
	c0.4,0.8,0.8,1.7,1.2,2.4c0.4,0.8,0.7,1.5,1,2.2c0.2-0.7,0.6-1.5,0.9-2.2c0.3-0.8,0.7-1.6,1.2-2.4l10.8-18.6c0.3-0.4,0.6-0.8,1-1.2
	c0.4-0.4,1-0.6,1.5-0.5h6.5L203,110.8z"/>
<path class="st0" d="M279.2,88.9c-0.2,0.3-0.4,0.6-0.7,0.9c-0.3,0.2-0.6,0.3-1,0.3c-0.5,0-1-0.2-1.4-0.6c-0.5-0.4-1.2-0.8-2-1.3
	c-0.9-0.5-1.9-1-2.9-1.3c-1.3-0.4-2.6-0.6-4-0.6c-1.3,0-2.6,0.2-3.8,0.6c-1,0.3-1.9,0.9-2.8,1.6c-0.7,0.6-1.3,1.4-1.6,2.3
	c-0.4,0.9-0.6,1.9-0.6,2.9c-0.1,1.2,0.3,2.4,1,3.3c0.7,0.9,1.6,1.7,2.7,2.2c1.2,0.7,2.5,1.2,3.8,1.6c1.4,0.5,2.9,0.9,4.3,1.4
	c1.5,0.5,2.9,1.1,4.3,1.7c1.4,0.6,2.6,1.5,3.8,2.4c1.1,1,2,2.2,2.7,3.6c0.7,1.6,1.1,3.4,1,5.2c0,2.1-0.4,4.2-1.1,6.2
	c-0.7,1.9-1.9,3.6-3.3,5c-1.5,1.5-3.3,2.6-5.3,3.4c-2.3,0.9-4.7,1.3-7.1,1.2c-1.6,0-3.1-0.2-4.6-0.5c-1.5-0.3-2.9-0.7-4.3-1.3
	c-1.3-0.5-2.6-1.2-3.8-2c-1.1-0.8-2.2-1.7-3.1-2.7l2.1-3.5c0.2-0.3,0.5-0.5,0.8-0.7c0.3-0.2,0.6-0.3,1-0.3c0.6,0.1,1.2,0.3,1.7,0.8
	c0.6,0.5,1.4,1.1,2.4,1.7c1.1,0.7,2.2,1.2,3.4,1.6c1.5,0.5,3.1,0.8,4.8,0.8c1.4,0,2.8-0.2,4.1-0.6c1.1-0.4,2.1-1,3-1.7
	c0.8-0.8,1.5-1.7,1.9-2.7c0.5-1.1,0.7-2.3,0.7-3.5c0.1-1.3-0.3-2.5-1-3.6c-0.7-1-1.6-1.8-2.7-2.3c-1.2-0.7-2.5-1.2-3.8-1.6l-4.3-1.4
	c-1.5-0.5-2.9-1-4.3-1.6c-1.4-0.6-2.7-1.4-3.8-2.4c-1.1-1.1-2-2.3-2.7-3.8c-0.7-1.8-1.1-3.7-1-5.6c0-1.8,0.3-3.5,1-5.2
	c0.7-1.7,1.7-3.2,3-4.4c1.4-1.3,3.1-2.4,4.9-3.1c2.1-0.8,4.4-1.2,6.7-1.2c2.6,0,5.2,0.4,7.7,1.3c2.3,0.9,4.3,2.2,6.1,3.9L279.2,88.9
	z"/>
<path class="st0" d="M352.8,86.9H337v43.6h-7.4V86.9h-15.8v-6.2h39L352.8,86.9z"/>
<path class="st0" d="M423.9,130.5h-5.7c-0.6,0-1.1-0.1-1.6-0.5c-0.4-0.3-0.7-0.8-0.9-1.2l-4.4-11.5h-21.9l-4.4,11.5
	c-0.2,0.5-0.5,0.9-0.9,1.2c-0.5,0.4-1,0.5-1.6,0.5h-5.7l19.8-49.8h7.5L423.9,130.5z M409.3,112L402,92.7c-0.6-1.6-1.2-3.3-1.6-5
	c-0.2,1-0.5,1.9-0.8,2.8c-0.3,0.8-0.5,1.6-0.8,2.3l-7.4,19.2L409.3,112z"/>
<path class="st0" d="M486.4,124.3v6.2h-28.5V80.7h7.4v43.6H486.4z"/>
<path class="st0" d="M562.1,80.7v49.8h-7.4v-22.4h-26v22.4h-7.4V80.7h7.4v22h26v-22H562.1z"/>
<path class="st0" d="M648.5,105.6c0,3.5-0.6,7-1.8,10.2c-1.1,3-2.8,5.7-5,8c-2.2,2.3-4.9,4.1-7.8,5.3c-6.5,2.5-13.7,2.5-20.2,0
	c-2.9-1.2-5.6-3-7.8-5.2c-2.2-2.3-3.9-5-5-8c-1.2-3.3-1.9-6.8-1.8-10.2c0-3.5,0.6-7,1.8-10.2c1.1-3,2.8-5.7,5-8.1
	c2.2-2.3,4.9-4.1,7.8-5.3c6.5-2.5,13.7-2.5,20.2,0c2.9,1.2,5.6,3,7.8,5.3c2.2,2.3,3.9,5.1,5,8.1C647.9,98.7,648.5,102.2,648.5,105.6
	z M640.9,105.6c0-2.7-0.4-5.4-1.2-8c-0.7-2.2-1.9-4.3-3.5-6c-1.5-1.6-3.3-2.9-5.4-3.8c-4.6-1.8-9.6-1.8-14.2,0
	c-2.1,0.8-3.9,2.1-5.4,3.8c-1.6,1.7-2.7,3.8-3.5,6c-0.8,2.6-1.3,5.3-1.2,8c0,2.7,0.4,5.4,1.2,8c0.7,2.2,1.9,4.3,3.5,6
	c1.5,1.6,3.4,2.9,5.4,3.8c4.6,1.7,9.6,1.7,14.2,0c2.1-0.8,3.9-2.1,5.4-3.8c1.5-1.7,2.7-3.8,3.5-6C640.6,111.1,641,108.3,640.9,105.6
	z"/>
<path class="st0" d="M737.8,80.8v49.8h-6.5V95.1c0-0.5,0-1.1,0.1-1.7c0.1-0.6,0.1-1.2,0.1-1.8L715,122c-0.5,1.1-1.5,1.7-2.7,1.7h-1
	c-1.1,0-2.2-0.6-2.6-1.7l-17-30.5c0.1,1.2,0.2,2.4,0.2,3.6v35.4h-6.5V80.8h5.5c0.5,0,1,0,1.5,0.2c0.4,0.2,0.8,0.6,1,1l16.6,29.8
	c0.3,0.6,0.6,1.2,0.9,1.9s0.5,1.3,0.8,2c0.5-1.4,1.1-2.7,1.7-4l16.3-29.8c0.2-0.4,0.6-0.8,1-1c0.5-0.1,1-0.2,1.5-0.2L737.8,80.8z"/>
<path class="st0" d="M808.7,124.5v6h-30.9V80.7h30.9v6h-23.4v15.8h18.8v5.8h-18.8v16.2H808.7z"/>
</svg>
