<svg id="Layer_1" data-name="Layer 1" xmlns="http://www.w3.org/2000/svg" viewBox="0 0 500 500"><defs><style>.cls-1{fill:#222221;}.cls-2{fill:none;stroke:#020201;stroke-width:11px;}.cls-2,.cls-6,.cls-7{stroke-miterlimit:10;}.cls-3{fill:#877bb5;}.cls-4{fill:#f0d3be;}.cls-5{fill:#eac1ac;}.cls-6{fill:#5ca664;}.cls-6,.cls-7{stroke:#130d0d;stroke-linecap:round;stroke-width:8px;stroke-dasharray:970 20;}.cls-7{fill:#4c8e50;}</style></defs><title>logos-1</title><path class="cls-1" d="M164.16,406.36a15.29,15.29,0,0,0-4.31-.68,7.8,7.8,0,0,0-4.87,1.38,4.68,4.68,0,0,0,.32,7.59,27.45,27.45,0,0,0,6,2.93,27.37,27.37,0,0,1,4.91,2.26,10.07,10.07,0,0,1,3.33,3.38,10.38,10.38,0,0,1,1.32,5.49,10.17,10.17,0,0,1-1.5,5.45,10.43,10.43,0,0,1-4.29,3.85,14.27,14.27,0,0,1-6.52,1.4,20.44,20.44,0,0,1-6.71-1.11,22.78,22.78,0,0,1-5.67-2.84l2.24-4a18.22,18.22,0,0,0,4.63,2.47,14.29,14.29,0,0,0,5,1,9,9,0,0,0,5.27-1.56,5.24,5.24,0,0,0,2.26-4.62,5,5,0,0,0-1.89-4.13,20.3,20.3,0,0,0-5.33-2.89,43.13,43.13,0,0,1-5.28-2.34,11.25,11.25,0,0,1-3.61-3.14,8.16,8.16,0,0,1-1.51-5,9.07,9.07,0,0,1,3.1-7.15,12.31,12.31,0,0,1,8-2.88,22.11,22.11,0,0,1,11.28,3l-1.93,3.9A23,23,0,0,0,164.16,406.36Z"/><path class="cls-1" d="M178.61,407.81a3,3,0,0,1,2-.78,2.9,2.9,0,0,1,2,.78,2.6,2.6,0,0,1,0,3.85,2.9,2.9,0,0,1-2,.78,3,3,0,0,1-2-.78,2.55,2.55,0,0,1,0-3.85Zm4.31,9.67V439h-4.83V417.48Z"/><path class="cls-1" d="M223.91,418.36a6.53,6.53,0,0,1,2,4.68v16H221V424.81c-.1-2.53-1.25-3.87-3.43-4a5.44,5.44,0,0,0-3.35,1.11,7.51,7.51,0,0,0-2.31,2.94,9.85,9.85,0,0,0-.89,3.9V439h-4.88V424.81c-.11-2.53-1.29-3.87-3.54-4a5.38,5.38,0,0,0-3.3,1.11,7.47,7.47,0,0,0-2.31,3,9.32,9.32,0,0,0-.83,3.92V439h-4.84V417.48h4.37l.36,4a9.21,9.21,0,0,1,3.41-3.64,9.35,9.35,0,0,1,4.91-1.29,7.48,7.48,0,0,1,4.37,1.22,5.51,5.51,0,0,1,2.28,3.35,10.07,10.07,0,0,1,3.43-3.35,8.64,8.64,0,0,1,4.47-1.22A6.88,6.88,0,0,1,223.91,418.36Z"/><path class="cls-1" d="M253.3,418.05a10.31,10.31,0,0,1,3.85,4.08,12.72,12.72,0,0,1,1.4,6.06,11.52,11.52,0,0,1-1.51,5.95,10.3,10.3,0,0,1-4.15,4,12.45,12.45,0,0,1-5.93,1.41,10.23,10.23,0,0,1-4.47-1,9,9,0,0,1-3.43-2.72v13.56h-4.83V417.12h4.21l.41,3.63a12.92,12.92,0,0,1,4-3,11.17,11.17,0,0,1,5-1.14A10.47,10.47,0,0,1,253.3,418.05Zm-3.51,16.61a7.45,7.45,0,0,0,2.78-2.65,7,7,0,0,0,1-3.77,7.77,7.77,0,0,0-1-3.85,7.13,7.13,0,0,0-6.31-3.69,7.35,7.35,0,0,0-4.71,1.54,7.15,7.15,0,0,0-2.57,4.13V430a6.43,6.43,0,0,0,2.36,4.08,7.07,7.07,0,0,0,4.6,1.59A7.66,7.66,0,0,0,249.79,434.66Z"/><path class="cls-1" d="M269.88,398.71V439h-4.83V398.71Z"/><path class="cls-1" d="M278.82,407.81a3,3,0,0,1,2-.78,2.88,2.88,0,0,1,2,.78,2.58,2.58,0,0,1,0,3.85,2.88,2.88,0,0,1-2,.78,3,3,0,0,1-2-.78,2.55,2.55,0,0,1,0-3.85Zm4.32,9.67V439H278.3V417.48Z"/><path class="cls-1" d="M305.56,438.84a12.65,12.65,0,0,1-4.08.68,13,13,0,0,1-6.16-1.41,10.06,10.06,0,0,1-4.15-4,11.71,11.71,0,0,1-1.49-5.95,11.13,11.13,0,0,1,1.56-5.9,10.81,10.81,0,0,1,4.16-4,11.71,11.71,0,0,1,5.62-1.4,12.28,12.28,0,0,1,8.16,2.7l-2.45,3.17a10.32,10.32,0,0,0-2.39-1.32,7.58,7.58,0,0,0-2.91-.55,6.66,6.66,0,0,0-3.51,1,6.85,6.85,0,0,0-2.49,2.63,7.5,7.5,0,0,0-.91,3.69,7.45,7.45,0,0,0,12,5.77l2.49,3A10.74,10.74,0,0,1,305.56,438.84Z"/><path class="cls-1" d="M315.78,407.81a3,3,0,0,1,2-.78,2.9,2.9,0,0,1,2,.78,2.6,2.6,0,0,1,0,3.85,2.9,2.9,0,0,1-2,.78,3,3,0,0,1-2-.78,2.53,2.53,0,0,1,0-3.85Zm4.31,9.67V439h-4.83V417.48Z"/><path class="cls-1" d="M335.48,408v9.51h5.87v3.85h-5.87V439h-4.89V421.38h-3.95v-3.85h3.95V408Z"/><path class="cls-1" d="M367.7,417.48l-13.88,31.86H349L354,438.27l-10-20.79h5.46l7,15.33,6.81-15.33Z"/><path class="cls-2" d="M404.94,186.53a19,19,0,0,0-5.61-5.56,18.37,18.37,0,0,0-15.91-2,.32.32,0,0,1-.37,0,.12.12,0,0,1-.07-.07.3.3,0,0,1,.1-.37c.21-.13.42-.28.63-.42a18.74,18.74,0,0,0,5.29-26,18.4,18.4,0,0,0-5.47-5.37A19.75,19.75,0,0,0,373,143.65a19.45,19.45,0,0,0-4.55.54.4.4,0,0,1-.53-.1,0,0,0,0,1,0,0,.39.39,0,0,1,.1-.55,19.16,19.16,0,0,0,7.86-11.88,18.75,18.75,0,0,0-8.19-19.39,18.8,18.8,0,0,0-16.92-1.77.21.21,0,0,1-.27-.1.2.2,0,0,1,.07-.26,19,19,0,0,0,5.9-25.76,18.75,18.75,0,0,0-26.28-5.73L304.8,95.37a143.65,143.65,0,0,0-45.23-15.16,104.85,104.85,0,0,0-15.21-18.57l-9.85-9.54a16.39,16.39,0,0,0-25.07,20.82,69.4,69.4,0,0,1,4.21,7.33A144.83,144.83,0,1,0,381.56,224.51l18.1-12A18.77,18.77,0,0,0,404.94,186.53Z"/><path class="cls-3" d="M381.58,223.23A144.82,144.82,0,1,1,236.76,78.41,144.82,144.82,0,0,1,381.58,223.23Z"/><path class="cls-4" d="M399.66,212.53,317,267.28a28.1,28.1,0,0,1-20,4.34,28.22,28.22,0,0,0-20,4.33l-11.07,7.33-62-91.36,15.21-65.69a68.64,68.64,0,0,0-9.63-53.31A16.39,16.39,0,0,1,234.51,52.1l9.85,9.54a105.33,105.33,0,0,1,25.42,39L275.12,115l55-36.35a18.75,18.75,0,0,1,26.28,5.73,19,19,0,0,1-5.9,25.76.2.2,0,0,0-.07.26.21.21,0,0,0,.27.1,18.75,18.75,0,0,1,25.11,21.16A19.16,19.16,0,0,1,368,143.52a.39.39,0,0,0-.1.55,0,0,0,0,0,0,0,.4.4,0,0,0,.53.1,19.45,19.45,0,0,1,4.55-.54,19.75,19.75,0,0,1,10.58,3.07,18.4,18.4,0,0,1,5.47,5.37,18.74,18.74,0,0,1-5.29,26c-.21.14-.42.29-.63.42a.3.3,0,0,0-.1.37.12.12,0,0,0,.07.07.32.32,0,0,0,.37,0,18.37,18.37,0,0,1,15.91,2,19,19,0,0,1,5.61,5.56A18.77,18.77,0,0,1,399.66,212.53Z"/><path class="cls-4" d="M404.94,186.53a19,19,0,0,0-5.61-5.56,18.37,18.37,0,0,0-15.91-2,.32.32,0,0,1-.37,0,.12.12,0,0,1-.07-.07.3.3,0,0,1,.1-.37c.21-.13.42-.28.63-.42a18.74,18.74,0,0,0,5.29-26,18.4,18.4,0,0,0-5.47-5.37A19.75,19.75,0,0,0,373,143.65a19.45,19.45,0,0,0-4.55.54.4.4,0,0,1-.53-.1,0,0,0,0,1,0,0,.39.39,0,0,1,.1-.55,19.16,19.16,0,0,0,7.86-11.88,18.75,18.75,0,0,0-8.19-19.39,18.8,18.8,0,0,0-16.92-1.77.21.21,0,0,1-.27-.1.2.2,0,0,1,.07-.26,19,19,0,0,0,5.9-25.76,18.75,18.75,0,0,0-26.28-5.73l-55,36.35-5.34-14.39a105.33,105.33,0,0,0-25.42-38.95l-9.85-9.54a16.39,16.39,0,0,0-25.07,20.82,68.64,68.64,0,0,1,9.63,53.31l-15.21,65.69,62,91.36L276.91,276a28.22,28.22,0,0,1,20-4.33,28.1,28.1,0,0,0,20-4.34l82.7-54.75A18.77,18.77,0,0,0,404.94,186.53Z"/><path class="cls-5" d="M367.63,112.25,340.11,127a8.93,8.93,0,0,1-11.37-2.56l21.7-14a.21.21,0,0,0,.27.1,18.8,18.8,0,0,1,16.92,1.77Z"/><path class="cls-5" d="M383.53,146.72l-26.92,14.39a8.9,8.9,0,0,1-11.37-2.55l21.7-14,.93-.44a.4.4,0,0,0,.53.1,19.51,19.51,0,0,1,4.55-.54A19.73,19.73,0,0,1,383.53,146.72Z"/><path class="cls-5" d="M399.34,181l-23.71,12.69a8.93,8.93,0,0,1-11.37-2.56l18.79-12.16a.3.3,0,0,0,.37,0A18.43,18.43,0,0,1,399.34,181Z"/><path class="cls-6" d="M266.63,300.62l-34.89,23.1-50.36,33.35A144.94,144.94,0,0,1,93.31,243.13l58.44-38.7,35.59-23.57a8.91,8.91,0,0,1,12.34,2.52l69.47,104.89A8.92,8.92,0,0,1,266.63,300.62Z"/><path class="cls-7" d="M266.63,300.62l-34.89,23.1-80-119.29,35.59-23.57a8.91,8.91,0,0,1,12.34,2.52l69.47,104.89A8.92,8.92,0,0,1,266.63,300.62Z"/></svg>