<svg id="Capa_1" enable-background="new 0 0 512 512" height="512" viewBox="0 0 512 512" width="512" xmlns="http://www.w3.org/2000/svg"><g clip-rule="evenodd" fill-rule="evenodd"><path d="m428.2 452.8h-344.401c-13.529 0-24.6 11.07-24.6 24.6s11.07 24.6 24.6 24.6h344.401c13.53 0 24.6-11.07 24.6-24.6-.001-13.53-11.07-24.6-24.6-24.6z" fill="#c68a65"/><path d="m83.799 452.8h344.401l-7.175-73.801h-.018-330.014-.019z" fill="#ddb9a3"/><path d="m90.993 378.999h330.014c35.062-39.171 56.393-90.89 56.393-147.599 0-122.276-99.124-221.4-221.4-221.4s-221.4 99.124-221.4 221.4c0 56.709 21.331 108.428 56.393 147.599z" fill="#fff3db"/></g><path d="m427.251 301.373c4.131 0 7.997-2.58 9.438-6.7 7.106-20.308 10.71-41.596 10.71-63.272 0-5.523-4.478-10-10-10s-10 4.477-10 10c0 19.422-3.226 38.487-9.587 56.667-1.824 5.213.923 10.917 6.136 12.742 1.094.381 2.208.563 3.303.563z"/><path d="m437.396 444.05-6.002-61.738c36.145-41.975 56.006-95.383 56.006-150.912 0-61.809-24.069-119.919-67.775-163.625s-101.816-67.775-163.625-67.775c-45.323 0-89.229 13.118-126.969 37.935-4.614 3.034-5.896 9.235-2.861 13.85 3.033 4.615 9.232 5.897 13.85 2.861 34.468-22.666 74.572-34.646 115.98-34.646 116.566 0 211.4 94.833 211.4 211.4 0 50.611-18.056 99.296-50.931 137.6h-320.938c-32.875-38.304-50.931-86.987-50.931-137.6 0-41.413 11.979-81.516 34.642-115.974 3.034-4.615 1.754-10.815-2.86-13.85-4.615-3.036-10.815-1.752-13.851 2.86-24.815 37.731-37.931 81.634-37.931 126.964 0 55.53 19.86 108.938 56.005 150.912l-6.001 61.738c-14.628 4.039-25.404 17.455-25.404 33.35 0 19.079 15.521 34.6 34.6 34.6h344.4c19.078 0 34.6-15.521 34.6-34.6-.001-15.894-10.777-29.311-25.404-33.35zm-337.347-55.05h311.9l5.231 53.8h-322.36zm328.151 103h-344.4c-8.05 0-14.6-6.55-14.6-14.6s6.55-14.6 14.6-14.6h.052.01 344.306c.007 0 .014.001.021.001.005 0 .011-.001.016-.001 8.048.002 14.595 6.551 14.595 14.6-.001 8.05-6.55 14.6-14.6 14.6z"/><path d="m99.443 84.848c2.561 0 5.122-.977 7.075-2.93 3.905-3.905 3.905-10.237 0-14.142-3.906-3.905-10.236-3.905-14.143 0l-.005.005c-3.905 3.905-3.902 10.234.003 14.139 1.953 1.952 4.511 2.928 7.07 2.928z"/><path d="m407.017 341.917c3.357 0 6.638-1.691 8.526-4.761l.004-.006c2.895-4.703 1.426-10.859-3.277-13.754-4.706-2.896-10.865-1.425-13.76 3.279-2.895 4.703-1.428 10.863 3.275 13.757 1.635 1.006 3.444 1.485 5.232 1.485z"/></svg>