<svg id="Layer_1" data-name="Layer 1" xmlns="http://www.w3.org/2000/svg" viewBox="0 0 500 500"><defs><style>.cls-1{fill:#5ca664;}.cls-2{fill:none;stroke:#130d0d;stroke-linecap:round;}.cls-2,.cls-3{stroke-miterlimit:10;stroke-width:8px;}.cls-3{fill:#cce5fa;stroke:#0f0b0c;}.cls-4{fill:#85afcc;}.cls-5{fill:#222221;}</style></defs><title>logos-1</title><path class="cls-1" d="M337.48,252.42H214.73l-.37-3.24H159.9l-14.12,83.64c0,13.32,25.66,24.78,62.41,29.8v-.11c.43.06.84.13,1.27.18A299.57,299.57,0,0,0,250,365.32c55.89,0,101.21-14.15,101.21-31.6Z"/><path class="cls-2" d="M337.48,252.42H214.73l-.37-3.24H159.9l-14.12,83.64c0,13.32,25.66,24.78,62.41,29.8v-.11c.43.06.84.13,1.27.18A299.57,299.57,0,0,0,250,365.32c55.89,0,101.21-14.15,101.21-31.6Z"/><circle class="cls-3" cx="250" cy="174.05" r="117.45"/><path class="cls-4" d="M256.49,74c-2.69,0-5.36.12-8,.33a99.21,99.21,0,0,1,71.83,39.87c6.8,9.16-1.38,21.76-12.58,19.58a45.86,45.86,0,1,0-8.81,90.86h.41c11.39-.1,17.07,13.82,8.72,21.57a99,99,0,0,1-59.57,26.19q4,.31,8,.32a99.36,99.36,0,0,0,0-198.72Z"/><path class="cls-5" d="M143.16,401.42v4.83H125.9v12H141V423H125.9v16h-5V401.42Z"/><path class="cls-5" d="M169.46,417.48V439h-4.37l-.31-4.11a8.61,8.61,0,0,1-3.38,3.56,9.65,9.65,0,0,1-5.09,1.38,6.8,6.8,0,0,1-4.86-1.79,6.45,6.45,0,0,1-2-4.66v-15.9h4.83v14.19a4.56,4.56,0,0,0,1.07,2.88,3.81,3.81,0,0,0,2.88,1.12,5.37,5.37,0,0,0,3.23-1.06,7.3,7.3,0,0,0,2.31-2.94,9.89,9.89,0,0,0,.86-4.16v-10Z"/><path class="cls-5" d="M184.85,408v9.51h5.87v3.85h-5.87V439H180V421.38h-4v-3.85h4V408Z"/><path class="cls-5" d="M216.6,417.48V439h-4.36l-.31-4.11a8.68,8.68,0,0,1-3.38,3.56,9.71,9.71,0,0,1-5.1,1.38,6.83,6.83,0,0,1-4.86-1.79,6.49,6.49,0,0,1-2-4.66v-15.9h4.84v14.19a4.5,4.5,0,0,0,1.06,2.88,3.82,3.82,0,0,0,2.89,1.12,5.34,5.34,0,0,0,3.22-1.06,7.3,7.3,0,0,0,2.31-2.94,9.89,9.89,0,0,0,.86-4.16v-10Z"/><path class="cls-5" d="M232.07,419.45a11.74,11.74,0,0,1,3.25-2.07,8.54,8.54,0,0,1,3-.78l-.21,4.83a7.81,7.81,0,0,0-4.23.94,7.48,7.48,0,0,0-3,2.88,7.72,7.72,0,0,0-1.06,3.92V439H225V417.48h4.32l.36,5.09A9.72,9.72,0,0,1,232.07,419.45Z"/><path class="cls-5" d="M259,433.49l2.23,3.59a14.86,14.86,0,0,1-3.72,1.79,12.56,12.56,0,0,1-3.87.65,12.79,12.79,0,0,1-6.26-1.48,10.39,10.39,0,0,1-4.13-4.08,11.84,11.84,0,0,1-1.46-5.88,11,11,0,0,1,1.59-5.79,11.42,11.42,0,0,1,4.34-4.16,12.18,12.18,0,0,1,6-1.53,10.37,10.37,0,0,1,7,2.46,12.69,12.69,0,0,1,3.87,6.89l-17,6a6.92,6.92,0,0,0,2.52,2.52,7.11,7.11,0,0,0,3.62.91A8.76,8.76,0,0,0,259,433.49Zm-10.5-11a7.47,7.47,0,0,0-1.93,5.3,9.07,9.07,0,0,0,.06,1.2l12.52-4.63a7.1,7.1,0,0,0-2.21-2.86,5.74,5.74,0,0,0-3.56-1.09A6.38,6.38,0,0,0,248.47,422.52Z"/><path class="cls-5" d="M308,404.48q3.45,3.07,3.45,8.58a14,14,0,0,1-1.27,5.93,10.25,10.25,0,0,1-4.11,4.47,13.63,13.63,0,0,1-7.14,1.71h-5.57V439h-5V401.42h10.08Q304.5,401.42,308,404.48Zm-4.68,14.66a6.57,6.57,0,0,0,2.41-2.78,7.76,7.76,0,0,0,.73-3.19,7.24,7.24,0,0,0-1.77-4.81c-1.17-1.41-3-2.11-5.5-2.11h-5.83v14h5.57A7.64,7.64,0,0,0,303.28,419.14Z"/><path class="cls-5" d="M325.05,419.45a12,12,0,0,1,3.25-2.07,8.64,8.64,0,0,1,3-.78l-.21,4.83a7.87,7.87,0,0,0-4.24.94,7.52,7.52,0,0,0-3,2.88,7.72,7.72,0,0,0-1.06,3.92V439H318V417.48h4.32l.36,5.09A9.69,9.69,0,0,1,325.05,419.45Z"/><path class="cls-5" d="M336.28,422.24a11.11,11.11,0,0,1,4.27-4.14,12.53,12.53,0,0,1,6.15-1.5,12.27,12.27,0,0,1,6.11,1.5,10.81,10.81,0,0,1,4.16,4.11,11.5,11.5,0,0,1,1.48,5.82,11.67,11.67,0,0,1-1.48,5.85,10.64,10.64,0,0,1-4.18,4.13,12.58,12.58,0,0,1-6.19,1.51,12.84,12.84,0,0,1-6.08-1.43,10.61,10.61,0,0,1-4.24-4,11.65,11.65,0,0,1-1.53-6A11.29,11.29,0,0,1,336.28,422.24Zm4.27,9.59a6.9,6.9,0,0,0,2.49,2.7,6.82,6.82,0,0,0,8.5-1.15,7.51,7.51,0,0,0,2-5.3,7.64,7.64,0,0,0-2-5.33,6.5,6.5,0,0,0-5-2.15,6.4,6.4,0,0,0-3.54,1,7.29,7.29,0,0,0-2.46,2.73,8.16,8.16,0,0,0,0,7.49Z"/><path class="cls-5" d="M364.61,422.24a11,11,0,0,1,4.26-4.14,12.6,12.6,0,0,1,6.16-1.5,12.29,12.29,0,0,1,6.11,1.5,10.88,10.88,0,0,1,4.16,4.11,11.5,11.5,0,0,1,1.48,5.82,11.67,11.67,0,0,1-1.48,5.85,10.6,10.6,0,0,1-4.19,4.13,12.52,12.52,0,0,1-6.18,1.51,12.84,12.84,0,0,1-6.08-1.43,10.55,10.55,0,0,1-4.24-4,11.65,11.65,0,0,1-1.53-6A11.29,11.29,0,0,1,364.61,422.24Zm4.26,9.59a7,7,0,0,0,2.5,2.7,6.82,6.82,0,0,0,8.5-1.15,7.51,7.51,0,0,0,2-5.3,7.64,7.64,0,0,0-2-5.33,6.5,6.5,0,0,0-5-2.15,6.4,6.4,0,0,0-3.54,1,7.32,7.32,0,0,0-2.47,2.73,8.16,8.16,0,0,0,0,7.49Z"/><path class="cls-5" d="M395,421.79h-3.69v-4.36H395v-9.05q0-4.68,2.14-7.17a7.76,7.76,0,0,1,6.23-2.5,10.08,10.08,0,0,1,2.45.34,8.41,8.41,0,0,1,2.28,1l-2.08,3.54a2.85,2.85,0,0,0-2.18-.83,3.51,3.51,0,0,0-3,1.35,7.41,7.41,0,0,0-1,4.36v9h6.86v4.36h-6.86V439H395Z"/></svg>