<svg id="Layer_1" data-name="Layer 1" xmlns="http://www.w3.org/2000/svg" viewBox="0 0 500 500"><defs><style>.cls-1{fill:#797681;}.cls-2{fill:#5ca664;stroke:#130d0d;stroke-linecap:round;stroke-miterlimit:10;stroke-width:8px;stroke-dasharray:970 20;}.cls-3{fill:#c6c5ca;}.cls-4{fill:#060606;}.cls-5{fill:#222221;}</style></defs><title>logos-1</title><path class="cls-1" d="M280,329.1a30,30,0,1,1-30-30A30,30,0,0,1,280,329.1Z"/><path class="cls-1" d="M280,94a30,30,0,1,1-30-30A30,30,0,0,1,280,94Z"/><path class="cls-2" d="M280,211.59a30,30,0,1,1-30-30A30,30,0,0,1,280,211.59Z"/><path class="cls-3" d="M381.83,152.63a30,30,0,1,1-30-30A30,30,0,0,1,381.83,152.63Z"/><path class="cls-2" d="M381.83,270.39a30,30,0,1,1-30-30A30,30,0,0,1,381.83,270.39Z"/><path class="cls-2" d="M178.25,152.63a30,30,0,1,1-30-30A30,30,0,0,1,178.25,152.63Z"/><path class="cls-3" d="M178.25,270.39a30,30,0,1,1-30-30A30,30,0,0,1,178.25,270.39Z"/><path class="cls-4" d="M182.35,295.25l4.45-7.72,29.14,16.83-4.45,7.71Z"/><path class="cls-4" d="M182.3,128l29.18-16.86,4.46,7.72-29.19,16.85Z"/><path class="cls-4" d="M284.06,118.87l4.46-7.72L317.7,128l-4.45,7.71Z"/><path class="cls-4" d="M347.34,194.7h8.91v33.93h-8.91Z"/><path class="cls-4" d="M250,294.6a34.5,34.5,0,1,0,34.49,34.5A34.54,34.54,0,0,0,250,294.6Zm0,60.09a25.59,25.59,0,1,1,25.59-25.59A25.62,25.62,0,0,1,250,354.69Z"/><path class="cls-4" d="M250,128.52A34.5,34.5,0,1,0,215.5,94,34.53,34.53,0,0,0,250,128.52Zm0-60.09A25.59,25.59,0,1,1,224.41,94,25.62,25.62,0,0,1,250,68.43Z"/><path class="cls-4" d="M250,246.08a34.5,34.5,0,1,0-34.5-34.49A34.53,34.53,0,0,0,250,246.08ZM250,186a25.59,25.59,0,1,1-25.59,25.59A25.62,25.62,0,0,1,250,186Z"/><path class="cls-4" d="M351.79,187.12a34.5,34.5,0,1,0-34.49-34.49A34.53,34.53,0,0,0,351.79,187.12Zm0-60.08a25.59,25.59,0,1,1-25.58,25.59A25.62,25.62,0,0,1,351.79,127Z"/><path class="cls-4" d="M351.79,235.9a34.49,34.49,0,1,0,34.5,34.49A34.53,34.53,0,0,0,351.79,235.9Zm0,60.08a25.59,25.59,0,1,1,25.59-25.59A25.61,25.61,0,0,1,351.79,296Z"/><path class="cls-4" d="M148.21,187.12a34.5,34.5,0,1,0-34.5-34.49A34.53,34.53,0,0,0,148.21,187.12Zm0-60.08a25.59,25.59,0,1,1-25.59,25.59A25.61,25.61,0,0,1,148.21,127Z"/><path class="cls-4" d="M148.21,235.9a34.49,34.49,0,1,0,34.49,34.49A34.53,34.53,0,0,0,148.21,235.9Zm0,60.08a25.59,25.59,0,1,1,25.58-25.59A25.62,25.62,0,0,1,148.21,296Z"/><path class="cls-4" d="M245.55,136h8.9v33.68h-8.9Z"/><path class="cls-4" d="M182.2,245.63l29.28-16.94,4.46,7.71-29.28,16.94Z"/><path class="cls-4" d="M284.06,236.4l4.46-7.71,29.28,16.94-4.46,7.71Z"/><path class="cls-5" d="M77.51,401.42H87.8a22.1,22.1,0,0,1,11.62,2.78,16.84,16.84,0,0,1,6.71,7.17,21.25,21.25,0,0,1,2.1,9.28,18.15,18.15,0,0,1-2.55,9.64,17.3,17.3,0,0,1-6.81,6.45A19.5,19.5,0,0,1,89.62,439H77.51Zm11.13,32.69a16.3,16.3,0,0,0,7.43-1.64,12.11,12.11,0,0,0,5.12-4.75,15.94,15.94,0,0,0-.08-15A12.59,12.59,0,0,0,96,407.89a14.92,14.92,0,0,0-6.89-1.64H82.55v27.86Z"/><path class="cls-5" d="M130.84,433.49l2.24,3.59a15.2,15.2,0,0,1-3.72,1.79,12.61,12.61,0,0,1-3.87.65,12.86,12.86,0,0,1-6.27-1.48,10.46,10.46,0,0,1-4.13-4.08,11.84,11.84,0,0,1-1.45-5.88,11,11,0,0,1,1.58-5.79,11.57,11.57,0,0,1,4.34-4.16,12.23,12.23,0,0,1,6-1.53,10.37,10.37,0,0,1,7,2.46,12.81,12.81,0,0,1,3.87,6.89l-17,6a6.77,6.77,0,0,0,2.52,2.52,7.09,7.09,0,0,0,3.61.91A8.76,8.76,0,0,0,130.84,433.49Zm-10.5-11a7.51,7.51,0,0,0-1.92,5.3,11.77,11.77,0,0,0,0,1.2L131,424.39a7.19,7.19,0,0,0-2.21-2.86,5.76,5.76,0,0,0-3.56-1.09A6.39,6.39,0,0,0,120.34,422.52Z"/><path class="cls-5" d="M156.54,438.84a12.65,12.65,0,0,1-4.08.68,13,13,0,0,1-6.16-1.41,10.06,10.06,0,0,1-4.15-4,11.71,11.71,0,0,1-1.49-5.95,11.23,11.23,0,0,1,1.56-5.9,10.81,10.81,0,0,1,4.16-4,11.71,11.71,0,0,1,5.62-1.4,12.28,12.28,0,0,1,8.16,2.7l-2.45,3.17a10.32,10.32,0,0,0-2.39-1.32,7.58,7.58,0,0,0-2.91-.55,6.66,6.66,0,0,0-3.51,1,6.85,6.85,0,0,0-2.49,2.63,7.5,7.5,0,0,0-.91,3.69,7.45,7.45,0,0,0,12,5.77l2.49,3A10.74,10.74,0,0,1,156.54,438.84Z"/><path class="cls-5" d="M181.57,433.49l2.24,3.59a15.2,15.2,0,0,1-3.72,1.79,12.56,12.56,0,0,1-3.87.65A12.86,12.86,0,0,1,170,438a10.46,10.46,0,0,1-4.13-4.08,11.84,11.84,0,0,1-1.45-5.88,11,11,0,0,1,1.58-5.79,11.57,11.57,0,0,1,4.34-4.16,12.23,12.23,0,0,1,6-1.53,10.37,10.37,0,0,1,7.05,2.46,12.81,12.81,0,0,1,3.87,6.89l-17.05,6a6.77,6.77,0,0,0,2.52,2.52,7.09,7.09,0,0,0,3.61.91A8.76,8.76,0,0,0,181.57,433.49Zm-10.5-11a7.51,7.51,0,0,0-1.92,5.3,11.77,11.77,0,0,0,0,1.2l12.53-4.63a7.19,7.19,0,0,0-2.21-2.86,5.76,5.76,0,0,0-3.56-1.09A6.39,6.39,0,0,0,171.07,422.52Z"/><path class="cls-5" d="M211.61,418.44a6.14,6.14,0,0,1,2,4.65V439h-4.88V424.76a4.34,4.34,0,0,0-1.1-2.86,4,4,0,0,0-3-1.09,5.87,5.87,0,0,0-4.73,2.28,8.9,8.9,0,0,0-1.87,5.82V439h-4.83V417.48h4.36l.31,4.16a8.52,8.52,0,0,1,3.44-3.67,10.29,10.29,0,0,1,5.25-1.32A7.14,7.14,0,0,1,211.61,418.44Z"/><path class="cls-5" d="M229,408v9.51h5.87v3.85H229V439h-4.89V421.38h-4v-3.85h4V408Z"/><path class="cls-5" d="M247.76,419.45a12,12,0,0,1,3.25-2.07,8.64,8.64,0,0,1,3-.78l-.21,4.83a7.87,7.87,0,0,0-4.24.94,7.52,7.52,0,0,0-3,2.88,7.72,7.72,0,0,0-1.06,3.92V439h-4.84V417.48H245l.36,5.09A9.69,9.69,0,0,1,247.76,419.45Z"/><path class="cls-5" d="M281.84,417.48V439H277v-3.54a11,11,0,0,1-3.32,2.78,9.65,9.65,0,0,1-4.94,1.28,11.46,11.46,0,0,1-5.54-1.33,9.68,9.68,0,0,1-3.9-3.87,13.56,13.56,0,0,1,.06-12.24,10.48,10.48,0,0,1,4-4.06A11.15,11.15,0,0,1,269,416.6a9.22,9.22,0,0,1,4.78,1.19,9.77,9.77,0,0,1,3.27,3.12l.37-3.43ZM274.59,434a6.56,6.56,0,0,0,2.41-4v-4.27a6.58,6.58,0,0,0-2.6-3.71,7.45,7.45,0,0,0-4.52-1.43,7.09,7.09,0,0,0-3.56.93,6.91,6.91,0,0,0-2.6,2.63,7.58,7.58,0,0,0-1,3.82,7.58,7.58,0,0,0,3.64,6.52,6.83,6.83,0,0,0,3.64,1A7.17,7.17,0,0,0,274.59,434Z"/><path class="cls-5" d="M295.09,398.71V439h-4.83V398.71Z"/><path class="cls-5" d="M304,407.81a3,3,0,0,1,2-.78,2.88,2.88,0,0,1,2,.78,2.58,2.58,0,0,1,0,3.85,2.88,2.88,0,0,1-2,.78,3,3,0,0,1-2-.78,2.55,2.55,0,0,1,0-3.85Zm4.31,9.67V439h-4.83V417.48Z"/><path class="cls-5" d="M321.91,435h12v4H314l12.21-17.57h-7.43a4,4,0,0,1-2.81-1,3.86,3.86,0,0,1-1.09-2.94V415.4h3.69v.68a1.3,1.3,0,0,0,.39,1.11,2.44,2.44,0,0,0,1.38.29h13.78Z"/><path class="cls-5" d="M362.92,417.48V439h-4.83v-3.54a11,11,0,0,1-3.33,2.78,9.6,9.6,0,0,1-4.94,1.28,11.42,11.42,0,0,1-5.53-1.33,9.56,9.56,0,0,1-3.9-3.87,13.6,13.6,0,0,1,.05-12.24,10.55,10.55,0,0,1,4-4.06A11.17,11.17,0,0,1,350,416.6a9.19,9.19,0,0,1,4.78,1.19,9.8,9.8,0,0,1,3.28,3.12l.36-3.43ZM355.67,434a6.57,6.57,0,0,0,2.42-4v-4.27a6.63,6.63,0,0,0-2.6-3.71A7.49,7.49,0,0,0,351,420.6a7.06,7.06,0,0,0-3.56.93,6.84,6.84,0,0,0-2.6,2.63,7.58,7.58,0,0,0-1,3.82,7.54,7.54,0,0,0,3.63,6.52,6.85,6.85,0,0,0,3.64,1A7.15,7.15,0,0,0,355.67,434Z"/><path class="cls-5" d="M378.31,408v9.51h5.87v3.85h-5.87V439h-4.89V421.38h-3.95v-3.85h3.95V408Z"/><path class="cls-5" d="M390.57,407.81a3,3,0,0,1,2-.78,2.88,2.88,0,0,1,2,.78,2.58,2.58,0,0,1,0,3.85,2.88,2.88,0,0,1-2,.78,3,3,0,0,1-2-.78,2.55,2.55,0,0,1,0-3.85Zm4.32,9.67V439h-4.84V417.48Z"/><path class="cls-5" d="M403,422.24a11,11,0,0,1,4.26-4.14,12.57,12.57,0,0,1,6.16-1.5,12.29,12.29,0,0,1,6.11,1.5,10.88,10.88,0,0,1,4.16,4.11,11.61,11.61,0,0,1,1.48,5.82,11.77,11.77,0,0,1-1.48,5.85,10.67,10.67,0,0,1-4.19,4.13,12.52,12.52,0,0,1-6.18,1.51,12.81,12.81,0,0,1-6.08-1.43,10.49,10.49,0,0,1-4.24-4,11.65,11.65,0,0,1-1.53-6A11.29,11.29,0,0,1,403,422.24Zm4.26,9.59a7,7,0,0,0,2.5,2.7,6.82,6.82,0,0,0,8.5-1.15,7.51,7.51,0,0,0,2-5.3,7.64,7.64,0,0,0-2-5.33,6.52,6.52,0,0,0-5-2.15,6.39,6.39,0,0,0-3.53,1,7.32,7.32,0,0,0-2.47,2.73,8.16,8.16,0,0,0,0,7.49Z"/><path class="cls-5" d="M450,418.44a6.14,6.14,0,0,1,2,4.65V439h-4.88V424.76a4.34,4.34,0,0,0-1.1-2.86,4,4,0,0,0-3-1.09,5.86,5.86,0,0,0-4.73,2.28,8.9,8.9,0,0,0-1.87,5.82V439h-4.83V417.48H436l.31,4.16a8.55,8.55,0,0,1,3.43-3.67,10.34,10.34,0,0,1,5.25-1.32A7.15,7.15,0,0,1,450,418.44Z"/></svg>