<svg id="Layer_1" data-name="Layer 1" xmlns="http://www.w3.org/2000/svg" viewBox="0 0 500 500"><defs><style>.cls-1{fill:#5ca664;stroke:#130d0d;stroke-linecap:round;stroke-miterlimit:10;stroke-width:8px;stroke-dasharray:970 20;}.cls-2{fill:#2e9648;}.cls-3{fill:#98c9e8;}.cls-4{fill:#6aaee3;}.cls-5{fill:#b1c966;}.cls-6{fill:#90b83b;}.cls-7{fill:#020201;}.cls-8{fill:#060606;}.cls-9{fill:#222221;}</style></defs><title>logos-1</title><path class="cls-1" d="M318.46,62.6c-28.72,0-54,17-68.46,42.62C235.5,79.58,210.26,62.6,181.54,62.6c-45,0-81.42,41.62-81.42,93C100.12,287.77,250,361.45,250,361.45s149.88-70.93,149.88-205.89C399.88,104.22,363.43,62.6,318.46,62.6Z"/><path class="cls-2" d="M318.46,62.6a72.13,72.13,0,0,0-13.29,1.24c38.67,7.23,68.17,45.54,68.17,91.72,0,110-99.6,177.49-136.41,198.66C245,359,250,361.45,250,361.45s149.88-70.92,149.88-205.89C399.88,104.22,363.43,62.6,318.46,62.6Z"/><path class="cls-3" d="M327,212.18a77,77,0,1,1-77-77A77,77,0,0,1,327,212.18Z"/><path class="cls-4" d="M250,135.21a77.32,77.32,0,0,0-13.27,1.14,77,77,0,0,1,0,151.67A77,77,0,1,0,250,135.21Z"/><path class="cls-5" d="M255.06,135.38l-.24.1s-3,22.23-14.83,29.64-20.75,19.27-14.08,32.61,21.5,8.16,35.21,6.3,3.33,40.4,11.48,50.77,31.13-10.37,28.91-23.72c-3.29-19.75-4.45-26.68,22.23-40.76h.09A77,77,0,0,0,255.06,135.38Z"/><path class="cls-5" d="M198.86,247c-3.56-5.42,6.3-18.16,8.52-27.79s-11.11-8.9-15.19-12.23-9.63-17.79-13.71-21.13c0,0-.55.6-1.45,1.73A77.07,77.07,0,0,0,202.76,273c1.05-.19,1.66-.37,1.66-.37A35.38,35.38,0,0,0,198.86,247Z"/><path class="cls-6" d="M300.43,211.37c1.81-7.19,7.94-12.93,23.31-21.05h.09a77.08,77.08,0,0,0-68.77-54.94l-.24.1s-.32,2.4-1.17,5.88A77,77,0,0,1,300.43,211.37Z"/><path class="cls-6" d="M301.51,231.08c-.66-4-1.24-7.44-1.52-10.55A76.53,76.53,0,0,1,288.08,254C295.81,248.77,302.78,238.72,301.51,231.08Z"/><path class="cls-7" d="M318.46,58.24c-27.13,0-52.24,14.26-68.46,38.51-16.22-24.25-41.33-38.51-68.46-38.51-47.39,0-85.95,43.73-85.95,97.48,0,30.93,8.07,61.25,24,90.13,12.66,23,30.29,45.09,52.39,65.7,37.53,35,74.48,53.35,76,54.12a4.58,4.58,0,0,0,3.94,0,271,271,0,0,0,26.42-15.05c4.91-3.12.05-10.75-4.85-7.63-11.17,7.09-19.78,11.65-23.47,13.52A353.51,353.51,0,0,1,178,304.77c-21.36-19.95-38.37-41.28-50.54-63.41-15.12-27.48-22.79-56.3-22.79-85.64,0-48.76,34.5-88.43,76.9-88.43,26.13,0,50.25,15.07,64.52,40.31a4.59,4.59,0,0,0,7.88,0c14.27-25.24,38.39-40.31,64.52-40.31,42.4,0,76.9,39.67,76.9,88.43,0,36.18-11.13,71.06-33.07,103.67-16.38,24.34-38.43,47.06-65.56,67.53-4.64,3.5.82,10.72,5.45,7.22,27.93-21.07,50.68-44.52,67.62-69.7,23-34.13,34.61-70.71,34.61-108.72C404.41,102,365.85,58.24,318.46,58.24Z"/><path class="cls-8" d="M185,163.17a80.75,80.75,0,0,0-16.5,49.17,81.5,81.5,0,1,0,36.8-68.15c-4.87,3.19.11,10.75,5,7.56A72.09,72.09,0,0,1,249.4,139.9c-1.67,7-5.37,17.53-11.8,21.54-16.68,10.43-22.56,24.81-15.73,38.47,7.13,14.28,21.8,11.77,33.58,9.76,2.08-.35,4.22-.72,6.27-1h.33c.1.08,1.19,1,1.83,6.07a131.57,131.57,0,0,1,.57,14.9c.05,11.52.09,22.4,4.6,28.14a11.6,11.6,0,0,0,9.43,4.54,18.65,18.65,0,0,0,7.45-1.72c10.79-4.77,21.9-18.94,20-30.08-1.52-9.16-2.53-15.21-.44-19.93,1.84-4.17,6.52-8.28,15.34-13.35A72.48,72.48,0,0,1,250,284.8a72,72,0,0,1-40.88-12.67,40.52,40.52,0,0,0-6.45-27.39c-.64-1.65,2.42-8.1,4.07-11.57,2-4.23,4.09-8.6,5-12.77,2.49-10.77-7.66-13.77-12.53-15.21a19.16,19.16,0,0,1-4.2-1.53c-1.35-1.11-3.89-5.8-5.75-9.22-2.18-4-4.13-7.63-6.17-10.08a72,72,0,0,1,9.07-15.73C195.72,164,188.51,158.54,185,163.17Zm112.25,43.74c-3.18,7.2-1.93,14.7-.2,25.08,1,6.12-6.71,16.75-14.77,20.31-3,1.31-5,1.26-6.12-.14-2.58-3.28-2.63-14.43-2.66-22.57-.05-12.37-.09-23.05-5.49-27.75a9.22,9.22,0,0,0-7.5-2.13c-2.2.3-4.43.68-6.58,1-13.79,2.36-20.23,2.61-24-4.88-2.18-4.35-5.32-15.66,12.43-26.75,10.23-6.4,14.59-21.39,16.16-28.72a72.65,72.65,0,0,1,59.79,47.86C306.16,195,300.13,200.38,297.25,206.91Zm-115.89-8.16c2.81,5.19,5.24,9.68,8,11.91,2,1.62,4.59,2.39,7.36,3.21,6.86,2,6.68,2.8,6.29,4.5-.74,3.2-2.61,7.12-4.41,10.91-3.64,7.67-7.09,14.91-3.49,20.38a32,32,0,0,1,5.26,15.39,72.47,72.47,0,0,1-20.81-69.64C180.17,196.55,180.79,197.71,181.36,198.75Z"/><path class="cls-2" d="M347.82,148.53c13.24,11.29,21.75,27.77,25.28,49a4.53,4.53,0,0,0,4.46,3.78A4.6,4.6,0,0,0,382,196c-4.9-29.4-18.35-46-28.77-54.74C341.78,131.65,331.39,129.13,331,129c-5.64-1.32-7.7,7.44-2.08,8.81C329,137.86,338,140.11,347.82,148.53Z"/><path class="cls-9" d="M124.79,406.36a15.36,15.36,0,0,0-4.32-.68,7.79,7.79,0,0,0-4.86,1.38,4.68,4.68,0,0,0,.31,7.59,27.79,27.79,0,0,0,6,2.93,27.69,27.69,0,0,1,4.91,2.26,10.26,10.26,0,0,1,3.33,3.38,10.38,10.38,0,0,1,1.32,5.49,10.09,10.09,0,0,1-1.51,5.45A10.34,10.34,0,0,1,125.7,438a14.28,14.28,0,0,1-6.53,1.4,20.43,20.43,0,0,1-6.7-1.11,22.78,22.78,0,0,1-5.67-2.84l2.24-4a18.32,18.32,0,0,0,4.62,2.47,14.33,14.33,0,0,0,5,1,9.08,9.08,0,0,0,5.28-1.56,5.24,5.24,0,0,0,2.26-4.62,5,5,0,0,0-1.9-4.13,20.22,20.22,0,0,0-5.32-2.89,41.8,41.8,0,0,1-5.28-2.34,11.15,11.15,0,0,1-3.61-3.14,8.09,8.09,0,0,1-1.51-5,9.09,9.09,0,0,1,3.09-7.15,12.33,12.33,0,0,1,8-2.88,22.06,22.06,0,0,1,11.28,3l-1.92,3.9A23,23,0,0,0,124.79,406.36Z"/><path class="cls-9" d="M158.73,417.48V439h-4.37l-.31-4.11a8.61,8.61,0,0,1-3.38,3.56,9.65,9.65,0,0,1-5.09,1.38,6.8,6.8,0,0,1-4.86-1.79,6.42,6.42,0,0,1-2-4.66v-15.9h4.83v14.19a4.5,4.5,0,0,0,1.07,2.88,3.81,3.81,0,0,0,2.88,1.12,5.31,5.31,0,0,0,3.22-1.06,7.41,7.41,0,0,0,2.32-2.94,9.89,9.89,0,0,0,.85-4.16v-10Z"/><path class="cls-9" d="M168.68,438.63a8.33,8.33,0,0,1-3.51-2.44l2.08-2.81a10.27,10.27,0,0,0,2.73,1.93,6.58,6.58,0,0,0,2.83.67,5.27,5.27,0,0,0,2.81-.67,2.28,2.28,0,0,0,1.09-2.08,2.39,2.39,0,0,0-.67-1.77,4.24,4.24,0,0,0-1.54-1c-.57-.2-1.53-.52-2.88-.93-3.68-1.18-5.51-3.28-5.51-6.29a6.19,6.19,0,0,1,2-4.63,7.74,7.74,0,0,1,5.59-1.92,13.2,13.2,0,0,1,4.05.57,9.94,9.94,0,0,1,3.28,1.82l-1.93,3a5.86,5.86,0,0,0-2.1-1.4,7.12,7.12,0,0,0-2.42-.57,4.31,4.31,0,0,0-2.49.7,2.28,2.28,0,0,0-.37,3.53,4.19,4.19,0,0,0,1.41.94q.72.28,2.85,1a11,11,0,0,1,4.14,2.29,5,5,0,0,1,1.48,3.79,6.71,6.71,0,0,1-2.19,5.15,8.73,8.73,0,0,1-6.18,2A12.42,12.42,0,0,1,168.68,438.63Z"/><path class="cls-9" d="M195.32,408v9.51h5.87v3.85h-5.87V439h-4.89V421.38h-4v-3.85h4V408Z"/><path class="cls-9" d="M229.16,417.48V439h-4.84v-3.54a11,11,0,0,1-3.32,2.78,9.65,9.65,0,0,1-4.94,1.28,11.46,11.46,0,0,1-5.54-1.33,9.68,9.68,0,0,1-3.9-3.87,13.56,13.56,0,0,1,.06-12.24,10.48,10.48,0,0,1,4-4.06,11.15,11.15,0,0,1,5.59-1.42,9.22,9.22,0,0,1,4.78,1.19,9.77,9.77,0,0,1,3.27,3.12l.37-3.43ZM221.91,434a6.56,6.56,0,0,0,2.41-4v-4.27a6.58,6.58,0,0,0-2.6-3.71,7.45,7.45,0,0,0-4.52-1.43,7.09,7.09,0,0,0-3.56.93,6.91,6.91,0,0,0-2.6,2.63,7.58,7.58,0,0,0-1,3.82,7.58,7.58,0,0,0,3.64,6.52,6.83,6.83,0,0,0,3.64,1A7.19,7.19,0,0,0,221.91,434Z"/><path class="cls-9" d="M238.1,407.81a3,3,0,0,1,2-.78,2.86,2.86,0,0,1,2,.78,2.58,2.58,0,0,1,0,3.85,2.86,2.86,0,0,1-2,.78,3,3,0,0,1-2-.78,2.53,2.53,0,0,1,0-3.85Zm4.31,9.67V439h-4.83V417.48Z"/><path class="cls-9" d="M269.18,418.44a6.18,6.18,0,0,1,2,4.65V439h-4.89V424.76a4.34,4.34,0,0,0-1.09-2.86,4,4,0,0,0-3-1.09,5.85,5.85,0,0,0-4.73,2.28,8.9,8.9,0,0,0-1.87,5.82V439h-4.84V417.48h4.37l.31,4.16a8.44,8.44,0,0,1,3.43-3.67,10.29,10.29,0,0,1,5.25-1.32A7.17,7.17,0,0,1,269.18,418.44Z"/><path class="cls-9" d="M301.67,417.48V439h-4.84v-3.54a10.88,10.88,0,0,1-3.33,2.78,9.59,9.59,0,0,1-4.93,1.28,11.46,11.46,0,0,1-5.54-1.33,9.56,9.56,0,0,1-3.9-3.87,12.26,12.26,0,0,1-1.43-6.08,12.4,12.4,0,0,1,1.48-6.16,10.57,10.57,0,0,1,4-4.06,11.13,11.13,0,0,1,5.58-1.42,9.23,9.23,0,0,1,4.79,1.19,9.77,9.77,0,0,1,3.27,3.12l.37-3.43ZM294.41,434a6.57,6.57,0,0,0,2.42-4v-4.27a6.58,6.58,0,0,0-2.6-3.71,7.45,7.45,0,0,0-4.52-1.43,7.09,7.09,0,0,0-3.56.93,6.91,6.91,0,0,0-2.6,2.63,7.58,7.58,0,0,0-1,3.82,7.58,7.58,0,0,0,3.64,6.52,6.83,6.83,0,0,0,3.64,1A7.14,7.14,0,0,0,294.41,434Z"/><path class="cls-9" d="M329.19,418A10.09,10.09,0,0,1,333,422a13.33,13.33,0,0,1-.11,12.11,10.19,10.19,0,0,1-4.08,4.05,11.4,11.4,0,0,1-5.58,1.41,11,11,0,0,1-4.81-1,9.49,9.49,0,0,1-3.51-2.81V439h-4.84V398.71h4.84v21.63a9.12,9.12,0,0,1,3.72-2.73,13,13,0,0,1,5.22-1A10.38,10.38,0,0,1,329.19,418Zm-1.77,15.23a8,8,0,0,0,1.09-9.12,7.17,7.17,0,0,0-2.62-2.68,7.08,7.08,0,0,0-3.69-1,7.85,7.85,0,0,0-4.66,1.43,6.57,6.57,0,0,0-2.62,3.77V430a6.92,6.92,0,0,0,2.6,3.84,7.44,7.44,0,0,0,4.68,1.51A6.94,6.94,0,0,0,327.42,433.23Z"/><path class="cls-9" d="M341.43,407.81a3,3,0,0,1,2-.78,2.9,2.9,0,0,1,2,.78,2.6,2.6,0,0,1,0,3.85,2.9,2.9,0,0,1-2,.78,3,3,0,0,1-2-.78,2.53,2.53,0,0,1,0-3.85Zm4.31,9.67V439h-4.83V417.48Z"/><path class="cls-9" d="M359,398.71V439h-4.84V398.71Z"/><path class="cls-9" d="M367.94,407.81a3,3,0,0,1,2-.78,2.88,2.88,0,0,1,2,.78,2.58,2.58,0,0,1,0,3.85,2.88,2.88,0,0,1-2,.78,3,3,0,0,1-2-.78,2.53,2.53,0,0,1,0-3.85Zm4.31,9.67V439h-4.83V417.48Z"/><path class="cls-9" d="M387.63,408v9.51h5.88v3.85h-5.88V439h-4.88V421.38H378.8v-3.85h3.95V408Z"/><path class="cls-9" d="M419.86,417.48,406,449.34H401.2l4.94-11.07-10-20.79h5.46l7,15.33,6.81-15.33Z"/></svg>