<svg id="Layer_1" data-name="Layer 1" xmlns="http://www.w3.org/2000/svg" viewBox="0 0 500 500"><defs><style>.cls-1{fill:#659ad4;}.cls-2{fill:#457abc;}.cls-3{fill:#5ca664;stroke:#130d0d;stroke-linecap:round;stroke-miterlimit:10;stroke-width:8px;stroke-dasharray:970 20;}.cls-4{fill:#0e9699;}.cls-5{fill:#c93e5a;}.cls-6{fill:#c52733;}.cls-7{fill:#060606;}.cls-8{font-size:51.98px;fill:#222221;font-family:JosefinSans-Regular, Josefin Sans;}.cls-9{letter-spacing:-0.01em;}</style></defs><title>logos-1</title><path class="cls-1" d="M399.86,218.18A149.87,149.87,0,1,1,250,68.32,149.86,149.86,0,0,1,399.86,218.18Z"/><path class="cls-2" d="M399.86,218.18A149.83,149.83,0,0,1,139.1,318.93,149.86,149.86,0,0,0,350.75,107.28,149.32,149.32,0,0,1,399.86,218.18Z"/><path class="cls-3" d="M402.49,218.18c0,2.68-.05,5.37-.21,8l-20.82-23.77L344.65,255l-36.81-31.55,15.78-31.55-31.55,5.26-27.56,23.61A41.52,41.52,0,0,0,250,218.18a42.08,42.08,0,0,0-42.07,42.07c0,23.24,42.07,63.1,42.07,63.1a256.81,256.81,0,0,0,29.5-34l7.31,18.25-42.07,36.8-42.07-26.29-26.29-57.84,36.81-57.84-15.77-21,89.39-57.84-68.36-21-12.2-30.45A153.06,153.06,0,0,1,324.88,85.3a41.38,41.38,0,0,0-6.52,22.46c0,23.24,42.07,63.1,42.07,63.1A271.09,271.09,0,0,0,383.82,145,151.16,151.16,0,0,1,402.49,218.18Z"/><path class="cls-4" d="M276.29,297.06l-8.83,7.73c2.63-3.1,5.36-6.42,8-9.89Z"/><path class="cls-4" d="M373.31,134.52a138,138,0,0,1,7.05,14.78,280.28,280.28,0,0,1-19.93,21.56S356,166.65,350,160.23A270.22,270.22,0,0,0,373.31,134.52Z"/><path class="cls-1" d="M402.49,107.76c0,10.72-9,25-18.67,37.28a271.09,271.09,0,0,1-23.39,25.82s-42.07-39.86-42.07-63.1a41.38,41.38,0,0,1,6.52-22.46,42.07,42.07,0,0,1,77.61,22.46Z"/><path class="cls-5" d="M381.46,107.76a21,21,0,1,1-21-21A21,21,0,0,1,381.46,107.76Z"/><path class="cls-5" d="M292.07,260.25c0,8.41-5.53,19-12.57,29.08a256.81,256.81,0,0,1-29.5,34s-42.07-39.86-42.07-63.1A42.08,42.08,0,0,1,250,218.18a41.52,41.52,0,0,1,14.51,2.58A42,42,0,0,1,292.07,260.25Z"/><path class="cls-1" d="M271,260.25a21,21,0,1,1-21-21A21,21,0,0,1,271,260.25Z"/><path class="cls-3" d="M172.17,87l30.5,52.27L181,155.08a23.28,23.28,0,0,0,.63-5.26,42,42,0,0,0-37.07-41.75A153.67,153.67,0,0,1,172.17,87Z"/><path class="cls-5" d="M181.64,149.82a23.28,23.28,0,0,1-.63,5.26c-2.68,12.15-13.67,27.19-23.61,38.86-9.36,10.94-17.83,19-17.83,19A232.27,232.27,0,0,1,105,171a45.14,45.14,0,0,1-7.46-21.19,42.06,42.06,0,0,1,42.06-42.06,38,38,0,0,1,5,.31A42,42,0,0,1,181.64,149.82Z"/><path class="cls-6" d="M381.46,107.76a21,21,0,0,1-40.18,8.62,20.74,20.74,0,0,0,8.63,1.89,21,21,0,0,0,21-21,20.74,20.74,0,0,0-1.89-8.63A21,21,0,0,1,381.46,107.76Z"/><path class="cls-6" d="M292.07,260.25c0,8.41-5.53,19-12.57,29.08a256.81,256.81,0,0,1-29.5,34s-4.42-4.21-10.41-10.62A252.44,252.44,0,0,0,269,278.81c7-10.1,12.57-20.66,12.57-29.08a42,42,0,0,0-7.47-24A42,42,0,0,1,292.07,260.25Z"/><path class="cls-6" d="M181.64,149.82a23.28,23.28,0,0,1-.63,5.26c-2.68,12.15-13.67,27.19-23.61,38.86-9.36,10.94-17.83,19-17.83,19s-4.42-4.2-10.41-10.62c1-.89,8.94-8.62,17.72-18.87,9.94-11.68,20.93-26.72,23.61-38.87a23.2,23.2,0,0,0,.63-5.25,41.56,41.56,0,0,0-7.62-24.09A42,42,0,0,1,181.64,149.82Z"/><path class="cls-3" d="M165.86,202.41l-5.25,42.06-36.81,21-5.42,29.76A152.83,152.83,0,0,1,105,171a232.27,232.27,0,0,0,34.6,41.91s8.47-8,17.83-19Z"/><path class="cls-1" d="M160.61,149.82a21,21,0,1,1-21-21A21,21,0,0,1,160.61,149.82Z"/><path class="cls-2" d="M402.49,107.76c0,10.72-9,25-18.67,37.28a271.09,271.09,0,0,1-23.39,25.82S356,166.65,350,160.23a270.22,270.22,0,0,0,23.3-25.71C383,122.27,392,108,392,97.24a41.43,41.43,0,0,0-7.58-24A41.77,41.77,0,0,1,402.49,107.76Z"/><path class="cls-2" d="M271,260.25a21,21,0,0,1-40.17,8.62,20.67,20.67,0,0,0,8.62,1.9,21,21,0,0,0,21-21,20.67,20.67,0,0,0-1.9-8.62A21,21,0,0,1,271,260.25Z"/><path class="cls-2" d="M160.61,149.82a21,21,0,0,1-40.18,8.63,20.74,20.74,0,0,0,8.63,1.89,21,21,0,0,0,21-21,20.74,20.74,0,0,0-1.89-8.63A21,21,0,0,1,160.61,149.82Z"/><path class="cls-7" d="M360.43,134.05a26.3,26.3,0,1,0-26.3-26.29A26.29,26.29,0,0,0,360.43,134.05Zm0-42.07a15.78,15.78,0,1,1-15.78,15.78A15.77,15.77,0,0,1,360.43,92Z"/><path class="cls-7" d="M407.75,107.76a47.27,47.27,0,0,0-84.47-29.23,157.42,157.42,0,0,0-180.55,24.12c-1-.06-2.07-.15-3.16-.15a47.38,47.38,0,0,0-47.32,47.32,47.93,47.93,0,0,0,7.07,21.85,155.77,155.77,0,0,0-7.07,46.51,157.75,157.75,0,1,0,297.8-72.5C399.45,133.29,407.75,119.15,407.75,107.76ZM360.43,71a36.84,36.84,0,0,1,36.8,36.81c0,15.56-23.94,42.82-36.8,55.74-12.87-12.92-36.81-40.17-36.81-55.74A36.85,36.85,0,0,1,360.43,71ZM170.35,94.34l25.39,43.52-9.16,6.66a47.4,47.4,0,0,0-31-39.19A147.13,147.13,0,0,1,170.35,94.34ZM139.57,113a36.85,36.85,0,0,1,36.81,36.81c0,15.57-23.94,42.83-36.81,55.74-12.87-12.91-36.81-40.16-36.81-55.74A36.86,36.86,0,0,1,139.57,113Zm-32.71,70.53a253.73,253.73,0,0,0,29.1,33.2,5.24,5.24,0,0,0,7.23,0c1.58-1.5,7.51-7.23,14.51-15.06l2.63,2.62-4.61,36.91-34.55,19.73a5.27,5.27,0,0,0-2.57,3.63L116,279.05A147.29,147.29,0,0,1,106.86,183.54ZM250,365.42a147.29,147.29,0,0,1-126.07-71.26l4.6-25.3L163.24,249a5.27,5.27,0,0,0,2.62-3.91l5.26-42.07a5.26,5.26,0,0,0-1.5-4.37l-5-5a109.33,109.33,0,0,0,21-35.36l20.23-14.72a5.26,5.26,0,0,0,1.45-6.91L179.4,89a145.51,145.51,0,0,1,23.8-10.42l10.37,25.88a5.23,5.23,0,0,0,3.34,3.07l57.58,17.72L194.57,177a5.25,5.25,0,0,0-1.36,7.57l13.59,18.12-34.86,54.78a5.26,5.26,0,0,0-.34,5l26.29,57.84a5.2,5.2,0,0,0,2,2.28L242,348.84a5.25,5.25,0,0,0,6.25-.52l42.07-36.81a5.26,5.26,0,0,0,1.42-5.91L285.43,290c6.75-10.16,11.89-20.82,11.89-29.76A47.3,47.3,0,0,0,274,219.54l20.36-17.45,19.93-3.32-11.16,22.32a5.25,5.25,0,0,0,1.28,6.34L341.23,259a5.23,5.23,0,0,0,3.42,1.27,4.87,4.87,0,0,0,.66,0A5.27,5.27,0,0,0,349,258l33-47.08L396.87,228A147.39,147.39,0,0,1,250,365.42Zm36.81-105.17c0,15.56-23.94,42.82-36.81,55.74-12.87-12.92-36.81-40.17-36.81-55.74a36.81,36.81,0,0,1,73.62,0Zm110.23-48-11.63-13.28a5.26,5.26,0,0,0-8.26.45l-33.48,47.85-29.29-25.1,13.94-27.87a5.25,5.25,0,0,0-.48-5.47,5.15,5.15,0,0,0-5.09-2.06L291.2,192a5.13,5.13,0,0,0-2.56,1.19L263.31,214.9a47.24,47.24,0,0,0-60.64,45.35c0,24.78,39.24,62.67,43.71,66.92a5.27,5.27,0,0,0,7.24,0,265.47,265.47,0,0,0,24.53-27.07l2.39,6-36.33,31.78-37.4-23.38-24.46-53.8,35.28-55.44a5.28,5.28,0,0,0-.23-6L205,182.72l84.66-54.78a5.26,5.26,0,0,0-1.31-9.44l-66-20.29L213.33,75.6A147.05,147.05,0,0,1,317.72,87.49a47.09,47.09,0,0,0-4.62,20.27c0,24.77,39.23,62.67,43.71,66.91a5.24,5.24,0,0,0,7.23,0,269,269,0,0,0,18.8-20A147,147,0,0,1,397,212.22Z"/><path class="cls-7" d="M223.71,260.25A26.29,26.29,0,1,0,250,234,26.29,26.29,0,0,0,223.71,260.25Zm42.06,0A15.78,15.78,0,1,1,250,244.47,15.77,15.77,0,0,1,265.77,260.25Z"/><path class="cls-7" d="M165.86,149.82a26.29,26.29,0,1,0-26.29,26.3A26.29,26.29,0,0,0,165.86,149.82Zm-42.06,0a15.78,15.78,0,1,1,15.77,15.78A15.77,15.77,0,0,1,123.8,149.82Z"/><text class="cls-8" transform="translate(107.35 439)">Inclusi<tspan class="cls-9" x="144.45" y="0">v</tspan><tspan x="169.6" y="0">eness</tspan></text></svg>