<svg id="Layer_1" data-name="Layer 1" xmlns="http://www.w3.org/2000/svg" viewBox="0 0 500 500"><defs><style>.cls-1{fill:#222221;}.cls-2{fill:#5ca664;stroke:#130d0d;stroke-linecap:round;stroke-miterlimit:10;stroke-width:8px;stroke-dasharray:970 20;}.cls-3{fill:#e7e9ed;}.cls-4{fill:#f3d374;}.cls-5{fill:#f0d0b5;}.cls-6{fill:#060606;}</style></defs><title>logos-1</title><path class="cls-1" d="M115.71,410.67a19.76,19.76,0,0,1,7-7,18.74,18.74,0,0,1,19.15,0,19.79,19.79,0,0,1,7,7,18.4,18.4,0,0,1,2.63,9.56,18.64,18.64,0,0,1-2.6,9.62,19.11,19.11,0,0,1-7,7,19.11,19.11,0,0,1-28.77-16.61A18.55,18.55,0,0,1,115.71,410.67Zm4.48,16.74a13.93,13.93,0,0,0,5.12,5.19,13.82,13.82,0,0,0,19.18-5.17,14.61,14.61,0,0,0,1.84-7.2,14.45,14.45,0,0,0-1.87-7.22,14,14,0,0,0-5.09-5.25,13.58,13.58,0,0,0-7.07-1.92,13.39,13.39,0,0,0-7.07,2,13.88,13.88,0,0,0-5.07,5.27,14.68,14.68,0,0,0-1.85,7.23A14.12,14.12,0,0,0,120.19,427.41Z"/><path class="cls-1" d="M177.88,418.05a10.31,10.31,0,0,1,3.85,4.08,12.72,12.72,0,0,1,1.4,6.06,11.52,11.52,0,0,1-1.51,5.95,10.3,10.3,0,0,1-4.15,4,12.45,12.45,0,0,1-5.93,1.41,10.23,10.23,0,0,1-4.47-1,9.13,9.13,0,0,1-3.43-2.72v13.56h-4.83V417.12H163l.41,3.63a13,13,0,0,1,4-3,11.17,11.17,0,0,1,5-1.14A10.47,10.47,0,0,1,177.88,418.05Zm-3.51,16.61a7.45,7.45,0,0,0,2.78-2.65,7,7,0,0,0,1-3.77,7.77,7.77,0,0,0-1-3.85,7.13,7.13,0,0,0-6.31-3.69,7.35,7.35,0,0,0-4.71,1.54,7.15,7.15,0,0,0-2.57,4.13V430A6.47,6.47,0,0,0,166,434a7.07,7.07,0,0,0,4.6,1.59A7.66,7.66,0,0,0,174.37,434.66Z"/><path class="cls-1" d="M205,433.49l2.24,3.59a15.2,15.2,0,0,1-3.72,1.79,12.56,12.56,0,0,1-3.87.65,12.86,12.86,0,0,1-6.27-1.48,10.46,10.46,0,0,1-4.13-4.08,11.84,11.84,0,0,1-1.45-5.88,11,11,0,0,1,1.58-5.79,11.49,11.49,0,0,1,4.34-4.16,12.23,12.23,0,0,1,6-1.53,10.37,10.37,0,0,1,7,2.46,12.81,12.81,0,0,1,3.87,6.89l-17,6a6.77,6.77,0,0,0,2.52,2.52,7.09,7.09,0,0,0,3.61.91A8.76,8.76,0,0,0,205,433.49Zm-10.5-11a7.51,7.51,0,0,0-1.92,5.3,11.77,11.77,0,0,0,.05,1.2l12.53-4.63a7.19,7.19,0,0,0-2.21-2.86,5.74,5.74,0,0,0-3.56-1.09A6.39,6.39,0,0,0,194.46,422.52Z"/><path class="cls-1" d="M235,418.44a6.17,6.17,0,0,1,2,4.65V439h-4.88V424.76a4.34,4.34,0,0,0-1.1-2.86,4,4,0,0,0-3-1.09,5.87,5.87,0,0,0-4.73,2.28,8.9,8.9,0,0,0-1.87,5.82V439h-4.83V417.48H221l.31,4.16a8.55,8.55,0,0,1,3.43-3.67,10.34,10.34,0,0,1,5.25-1.32A7.19,7.19,0,0,1,235,418.44Z"/><path class="cls-1" d="M278.15,406.36a15.36,15.36,0,0,0-4.32-.68,7.79,7.79,0,0,0-4.86,1.38,4.68,4.68,0,0,0,.31,7.59,27.79,27.79,0,0,0,6,2.93,27.37,27.37,0,0,1,4.91,2.26,10.26,10.26,0,0,1,3.33,3.38,10.38,10.38,0,0,1,1.32,5.49,10.09,10.09,0,0,1-1.51,5.45,10.34,10.34,0,0,1-4.28,3.85,14.28,14.28,0,0,1-6.53,1.4,20.43,20.43,0,0,1-6.7-1.11,22.78,22.78,0,0,1-5.67-2.84l2.24-4a18.32,18.32,0,0,0,4.62,2.47,14.33,14.33,0,0,0,5,1,9.08,9.08,0,0,0,5.28-1.56,5.24,5.24,0,0,0,2.26-4.62,5,5,0,0,0-1.9-4.13,20.22,20.22,0,0,0-5.32-2.89,41.8,41.8,0,0,1-5.28-2.34,11.15,11.15,0,0,1-3.61-3.14,8.09,8.09,0,0,1-1.51-5,9.09,9.09,0,0,1,3.09-7.15,12.33,12.33,0,0,1,8-2.88,22.06,22.06,0,0,1,11.28,3l-1.92,3.9A23,23,0,0,0,278.15,406.36Z"/><path class="cls-1" d="M291.74,422.24A11,11,0,0,1,296,418.1a12.57,12.57,0,0,1,6.16-1.5,12.29,12.29,0,0,1,6.11,1.5,10.78,10.78,0,0,1,4.15,4.11,11.51,11.51,0,0,1,1.49,5.82,11.68,11.68,0,0,1-1.49,5.85,10.58,10.58,0,0,1-4.18,4.13,12.52,12.52,0,0,1-6.18,1.51,12.88,12.88,0,0,1-6.09-1.43,10.52,10.52,0,0,1-4.23-4,11.56,11.56,0,0,1-1.54-6A11.2,11.2,0,0,1,291.74,422.24Zm4.26,9.59a7,7,0,0,0,2.5,2.7,6.81,6.81,0,0,0,8.49-1.15,7.48,7.48,0,0,0,2-5.3,7.6,7.6,0,0,0-2-5.33,6.49,6.49,0,0,0-5-2.15,6.39,6.39,0,0,0-3.53,1,7.32,7.32,0,0,0-2.47,2.73,8.16,8.16,0,0,0,0,7.49Z"/><path class="cls-1" d="M340.42,417.48V439h-4.37l-.31-4.11a8.68,8.68,0,0,1-3.38,3.56,9.68,9.68,0,0,1-5.1,1.38,6.79,6.79,0,0,1-4.85-1.79,6.46,6.46,0,0,1-2-4.66v-15.9h4.84v14.19a4.55,4.55,0,0,0,1.06,2.88,3.84,3.84,0,0,0,2.89,1.12,5.31,5.31,0,0,0,3.22-1.06,7.3,7.3,0,0,0,2.31-2.94,9.74,9.74,0,0,0,.86-4.16v-10Z"/><path class="cls-1" d="M355.88,419.45a11.74,11.74,0,0,1,3.25-2.07,8.59,8.59,0,0,1,3-.78l-.21,4.83a7.83,7.83,0,0,0-4.23.94,7.48,7.48,0,0,0-3,2.88,7.72,7.72,0,0,0-1.06,3.92V439h-4.83V417.48h4.31l.36,5.09A9.87,9.87,0,0,1,355.88,419.45Z"/><path class="cls-1" d="M381.45,438.84a12.65,12.65,0,0,1-4.08.68,13,13,0,0,1-6.16-1.41,10.14,10.14,0,0,1-4.16-4,11.8,11.8,0,0,1-1.48-5.95,11.13,11.13,0,0,1,1.56-5.9,10.81,10.81,0,0,1,4.16-4,11.67,11.67,0,0,1,5.61-1.4,12.24,12.24,0,0,1,8.16,2.7l-2.44,3.17a10.32,10.32,0,0,0-2.39-1.32,7.58,7.58,0,0,0-2.91-.55,6.66,6.66,0,0,0-3.51,1,6.78,6.78,0,0,0-2.49,2.63,7.5,7.5,0,0,0-.91,3.69,7.44,7.44,0,0,0,12,5.77l2.5,3A10.74,10.74,0,0,1,381.45,438.84Z"/><path class="cls-1" d="M406.48,433.49l2.23,3.59a15,15,0,0,1-3.71,1.79,12.66,12.66,0,0,1-3.87.65,12.83,12.83,0,0,1-6.27-1.48,10.46,10.46,0,0,1-4.13-4.08,11.84,11.84,0,0,1-1.46-5.88,11,11,0,0,1,1.59-5.79,11.49,11.49,0,0,1,4.34-4.16,12.23,12.23,0,0,1,6-1.53,10.35,10.35,0,0,1,7,2.46,12.76,12.76,0,0,1,3.88,6.89l-17,6a6.77,6.77,0,0,0,2.52,2.52,7.07,7.07,0,0,0,3.61.91A8.76,8.76,0,0,0,406.48,433.49Zm-10.5-11a7.51,7.51,0,0,0-1.92,5.3,9.42,9.42,0,0,0,.05,1.2l12.53-4.63a7.19,7.19,0,0,0-2.21-2.86,5.76,5.76,0,0,0-3.56-1.09A6.39,6.39,0,0,0,396,422.52Z"/><path class="cls-2" d="M268.75,261.38A18.74,18.74,0,0,1,250,280.13a17.24,17.24,0,0,1-4.69-.61l-.89.19a56.45,56.45,0,0,0-15.7-30.24l-6.85-6.84H334.38V106.69h32.81V261.38Z"/><path class="cls-2" d="M193.75,242.63v18.75H132.81V106.69h32.81V242.63Z"/><path class="cls-3" d="M250,172.32v70.31H221.87V214.51a23.35,23.35,0,0,0-23.43-23.44,4.7,4.7,0,0,0-4.69,4.68v46.88H165.62V172.32Z"/><path class="cls-3" d="M250,167.63V120.75a37.49,37.49,0,0,1,37.5-37.5h46.88V242.63H250Z"/><path class="cls-3" d="M212.5,83.25a37.49,37.49,0,0,1,37.5,37.5v51.57H165.62V83.25Z"/><path class="cls-4" d="M217.19,327v37.5H287.5V327Z"/><path class="cls-5" d="M244.42,279.71l.89-.19a17.24,17.24,0,0,0,4.69.61,18.74,18.74,0,0,0,18.75-18.75h37.5v14.77a19.62,19.62,0,0,1-1.59,7.64l-15.57,34.87a19.62,19.62,0,0,0-1.59,7.64V327H217.19a19.39,19.39,0,0,0-2.35-9L196.09,284.4a19.06,19.06,0,0,1-2.34-9.14V195.75a4.7,4.7,0,0,1,4.69-4.68,23.35,23.35,0,0,1,23.43,23.44v28.12l6.85,6.84A56.45,56.45,0,0,1,244.42,279.71Z"/><path class="cls-6" d="M292.19,359.82V326.3a14,14,0,0,1,1.21-5.71l15.52-34.91a23.49,23.49,0,0,0,2-9.53V266.07h60.94V102H339.06V78.57H287.5A42.21,42.21,0,0,0,250,101.44a42.21,42.21,0,0,0-37.5-22.87H160.94V102H128.12V266.07h60.94v9.2A23.52,23.52,0,0,0,192,286.66l18.72,33.69a14,14,0,0,1,1.77,6.83v32.64H104.68v9.38H395.32v-9.38ZM362.5,111.38V256.69H264.06v4.69A14.08,14.08,0,0,1,250,275.44a12.59,12.59,0,0,1-1.73-.22,60.83,60.83,0,0,0-15.18-27.9h106V111.38ZM170.31,87.94H212.5a32.85,32.85,0,0,1,32.81,32.81v37.5h9.38v-37.5A32.85,32.85,0,0,1,287.5,87.94h42.19v150h-75V167.63h-9.38v70.31H226.56V214.51a28.15,28.15,0,0,0-28.12-28.13,9.38,9.38,0,0,0-9.38,9.37v42.19H170.31ZM137.5,256.69V111.38h23.44V247.32h28.12v9.37Zm62.7,25.41a14.15,14.15,0,0,1-1.76-6.83V195.75a18.77,18.77,0,0,1,18.75,18.76v30.06l8.24,8.24a51.56,51.56,0,0,1,15.19,36.7H250c0-1.58-.11-3.14-.23-4.7H250a23.47,23.47,0,0,0,23-18.75h28.6v10.08a13.81,13.81,0,0,1-1.21,5.71l-15.52,34.91a23,23,0,0,0-1.6,5.55H221.32a23.62,23.62,0,0,0-2.39-6.53Zm21.67,68.35h42.19v-9.38H221.87v-9.38h60.94v9.38h-9.37v9.38h9.37v9.37H221.87Z"/><path class="cls-6" d="M287.5,200.44h9.38v9.38H287.5Z"/><path class="cls-6" d="M306.25,200.44h9.38v9.38h-9.38Z"/><path class="cls-6" d="M268.75,200.44h9.38v9.38h-9.38Z"/><path class="cls-6" d="M264.06,219.19h56.25v9.38H264.06Z"/><path class="cls-6" d="M264.06,181.69h56.25v9.38H264.06Z"/><path class="cls-6" d="M264.06,148.88h56.25v9.37H264.06Z"/><path class="cls-6" d="M264.06,130.13h56.25v9.37H264.06Z"/><path class="cls-6" d="M264.06,111.38h56.25v9.37H264.06Z"/><path class="cls-6" d="M203.12,130.13h9.38v9.37h-9.38Z"/><path class="cls-6" d="M221.87,130.13h9.38v9.37h-9.38Z"/><path class="cls-6" d="M184.37,130.13h9.38v9.37h-9.38Z"/><path class="cls-6" d="M179.69,111.38h56.25v9.37H179.69Z"/><path class="cls-6" d="M179.69,148.88h56.25v9.37H179.69Z"/><path class="cls-6" d="M179.69,167.63h56.25V177H179.69Z"/></svg>