<svg id="Layer_1" data-name="Layer 1" xmlns="http://www.w3.org/2000/svg" viewBox="0 0 500 500"><defs><style>.cls-1{font-size:51.98px;fill:#222221;font-family:JosefinSans-Regular, Josefin Sans;}.cls-2{fill:none;stroke:#020201;stroke-width:11px;}.cls-2,.cls-6,.cls-7{stroke-miterlimit:10;}.cls-3{fill:#877bb5;}.cls-4{fill:#f0d3be;}.cls-5{fill:#eac1ac;}.cls-6{fill:#5ca664;}.cls-6,.cls-7{stroke:#130d0d;stroke-linecap:round;stroke-width:8px;stroke-dasharray:970 20;}.cls-7{fill:#4c8e50;}</style></defs><title>logos-1</title><text class="cls-1" transform="translate(143.63 439)">Simplicity</text><path class="cls-2" d="M404.94,186.53a19,19,0,0,0-5.61-5.56,18.37,18.37,0,0,0-15.91-2,.32.32,0,0,1-.37,0,.12.12,0,0,1-.07-.07.3.3,0,0,1,.1-.37c.21-.13.42-.28.63-.42a18.74,18.74,0,0,0,5.29-26,18.4,18.4,0,0,0-5.47-5.37A19.75,19.75,0,0,0,373,143.65a19.45,19.45,0,0,0-4.55.54.4.4,0,0,1-.53-.1,0,0,0,0,1,0,0,.39.39,0,0,1,.1-.55,19.16,19.16,0,0,0,7.86-11.88,18.75,18.75,0,0,0-8.19-19.39,18.8,18.8,0,0,0-16.92-1.77.21.21,0,0,1-.27-.1.2.2,0,0,1,.07-.26,19,19,0,0,0,5.9-25.76,18.75,18.75,0,0,0-26.28-5.73L304.8,95.37a143.65,143.65,0,0,0-45.23-15.16,104.85,104.85,0,0,0-15.21-18.57l-9.85-9.54a16.39,16.39,0,0,0-25.07,20.82,69.4,69.4,0,0,1,4.21,7.33A144.83,144.83,0,1,0,381.56,224.51l18.1-12A18.77,18.77,0,0,0,404.94,186.53Z"/><path class="cls-3" d="M381.58,223.23A144.82,144.82,0,1,1,236.76,78.41,144.82,144.82,0,0,1,381.58,223.23Z"/><path class="cls-4" d="M399.66,212.53,317,267.28a28.1,28.1,0,0,1-20,4.34,28.22,28.22,0,0,0-20,4.33l-11.07,7.33-62-91.36,15.21-65.69a68.64,68.64,0,0,0-9.63-53.31A16.39,16.39,0,0,1,234.51,52.1l9.85,9.54a105.33,105.33,0,0,1,25.42,39L275.12,115l55-36.35a18.75,18.75,0,0,1,26.28,5.73,19,19,0,0,1-5.9,25.76.2.2,0,0,0-.07.26.21.21,0,0,0,.27.1,18.75,18.75,0,0,1,25.11,21.16A19.16,19.16,0,0,1,368,143.52a.39.39,0,0,0-.1.55,0,0,0,0,0,0,0,.4.4,0,0,0,.53.1,19.45,19.45,0,0,1,4.55-.54,19.75,19.75,0,0,1,10.58,3.07,18.4,18.4,0,0,1,5.47,5.37,18.74,18.74,0,0,1-5.29,26c-.21.14-.42.29-.63.42a.3.3,0,0,0-.1.37.12.12,0,0,0,.07.07.32.32,0,0,0,.37,0,18.37,18.37,0,0,1,15.91,2,19,19,0,0,1,5.61,5.56A18.77,18.77,0,0,1,399.66,212.53Z"/><path class="cls-4" d="M404.94,186.53a19,19,0,0,0-5.61-5.56,18.37,18.37,0,0,0-15.91-2,.32.32,0,0,1-.37,0,.12.12,0,0,1-.07-.07.3.3,0,0,1,.1-.37c.21-.13.42-.28.63-.42a18.74,18.74,0,0,0,5.29-26,18.4,18.4,0,0,0-5.47-5.37A19.75,19.75,0,0,0,373,143.65a19.45,19.45,0,0,0-4.55.54.4.4,0,0,1-.53-.1,0,0,0,0,1,0,0,.39.39,0,0,1,.1-.55,19.16,19.16,0,0,0,7.86-11.88,18.75,18.75,0,0,0-8.19-19.39,18.8,18.8,0,0,0-16.92-1.77.21.21,0,0,1-.27-.1.2.2,0,0,1,.07-.26,19,19,0,0,0,5.9-25.76,18.75,18.75,0,0,0-26.28-5.73l-55,36.35-5.34-14.39a105.33,105.33,0,0,0-25.42-38.95l-9.85-9.54a16.39,16.39,0,0,0-25.07,20.82,68.64,68.64,0,0,1,9.63,53.31l-15.21,65.69,62,91.36L276.91,276a28.22,28.22,0,0,1,20-4.33,28.1,28.1,0,0,0,20-4.34l82.7-54.75A18.77,18.77,0,0,0,404.94,186.53Z"/><path class="cls-5" d="M367.63,112.25,340.11,127a8.93,8.93,0,0,1-11.37-2.56l21.7-14a.21.21,0,0,0,.27.1,18.8,18.8,0,0,1,16.92,1.77Z"/><path class="cls-5" d="M383.53,146.72l-26.92,14.39a8.9,8.9,0,0,1-11.37-2.55l21.7-14,.93-.44a.4.4,0,0,0,.53.1,19.51,19.51,0,0,1,4.55-.54A19.73,19.73,0,0,1,383.53,146.72Z"/><path class="cls-5" d="M399.34,181l-23.71,12.69a8.93,8.93,0,0,1-11.37-2.56l18.79-12.16a.3.3,0,0,0,.37,0A18.43,18.43,0,0,1,399.34,181Z"/><path class="cls-6" d="M266.63,300.62l-34.89,23.1-50.36,33.35A144.94,144.94,0,0,1,93.31,243.13l58.44-38.7,35.59-23.57a8.91,8.91,0,0,1,12.34,2.52l69.47,104.89A8.92,8.92,0,0,1,266.63,300.62Z"/><path class="cls-7" d="M266.63,300.62l-34.89,23.1-80-119.29,35.59-23.57a8.91,8.91,0,0,1,12.34,2.52l69.47,104.89A8.92,8.92,0,0,1,266.63,300.62Z"/></svg>