<svg id="Layer_1" data-name="Layer 1" xmlns="http://www.w3.org/2000/svg" viewBox="0 0 500 500"><defs><style>.cls-1{fill:#797681;}.cls-2{fill:#5ca664;stroke:#130d0d;stroke-linecap:round;stroke-miterlimit:10;stroke-width:8px;stroke-dasharray:970 20;}.cls-3{fill:#c6c5ca;}.cls-4{fill:#060606;}.cls-5{font-size:51.98px;fill:#222221;font-family:JosefinSans-Regular, Josefin Sans;}.cls-6{letter-spacing:-0.01em;}.cls-7{letter-spacing:0em;}</style></defs><title>logos-1</title><path class="cls-1" d="M280,329.1a30,30,0,1,1-30-30A30,30,0,0,1,280,329.1Z"/><path class="cls-1" d="M280,94a30,30,0,1,1-30-30A30,30,0,0,1,280,94Z"/><path class="cls-2" d="M280,211.59a30,30,0,1,1-30-30A30,30,0,0,1,280,211.59Z"/><path class="cls-3" d="M381.83,152.63a30,30,0,1,1-30-30A30,30,0,0,1,381.83,152.63Z"/><path class="cls-2" d="M381.83,270.39a30,30,0,1,1-30-30A30,30,0,0,1,381.83,270.39Z"/><path class="cls-2" d="M178.25,152.63a30,30,0,1,1-30-30A30,30,0,0,1,178.25,152.63Z"/><path class="cls-3" d="M178.25,270.39a30,30,0,1,1-30-30A30,30,0,0,1,178.25,270.39Z"/><path class="cls-4" d="M182.35,295.25l4.45-7.72,29.14,16.83-4.45,7.71Z"/><path class="cls-4" d="M182.3,128l29.18-16.86,4.46,7.72-29.19,16.85Z"/><path class="cls-4" d="M284.06,118.87l4.46-7.72L317.7,128l-4.45,7.71Z"/><path class="cls-4" d="M347.34,194.7h8.91v33.93h-8.91Z"/><path class="cls-4" d="M250,294.6a34.5,34.5,0,1,0,34.49,34.5A34.54,34.54,0,0,0,250,294.6Zm0,60.09a25.59,25.59,0,1,1,25.59-25.59A25.62,25.62,0,0,1,250,354.69Z"/><path class="cls-4" d="M250,128.52A34.5,34.5,0,1,0,215.5,94,34.53,34.53,0,0,0,250,128.52Zm0-60.09A25.59,25.59,0,1,1,224.41,94,25.62,25.62,0,0,1,250,68.43Z"/><path class="cls-4" d="M250,246.08a34.5,34.5,0,1,0-34.5-34.49A34.53,34.53,0,0,0,250,246.08ZM250,186a25.59,25.59,0,1,1-25.59,25.59A25.62,25.62,0,0,1,250,186Z"/><path class="cls-4" d="M351.79,187.12a34.5,34.5,0,1,0-34.49-34.49A34.53,34.53,0,0,0,351.79,187.12Zm0-60.08a25.59,25.59,0,1,1-25.58,25.59A25.62,25.62,0,0,1,351.79,127Z"/><path class="cls-4" d="M351.79,235.9a34.49,34.49,0,1,0,34.5,34.49A34.53,34.53,0,0,0,351.79,235.9Zm0,60.08a25.59,25.59,0,1,1,25.59-25.59A25.61,25.61,0,0,1,351.79,296Z"/><path class="cls-4" d="M148.21,187.12a34.5,34.5,0,1,0-34.5-34.49A34.53,34.53,0,0,0,148.21,187.12Zm0-60.08a25.59,25.59,0,1,1-25.59,25.59A25.61,25.61,0,0,1,148.21,127Z"/><path class="cls-4" d="M148.21,235.9a34.49,34.49,0,1,0,34.49,34.49A34.53,34.53,0,0,0,148.21,235.9Zm0,60.08a25.59,25.59,0,1,1,25.58-25.59A25.62,25.62,0,0,1,148.21,296Z"/><path class="cls-4" d="M245.55,136h8.9v33.68h-8.9Z"/><path class="cls-4" d="M182.2,245.63l29.28-16.94,4.46,7.71-29.28,16.94Z"/><path class="cls-4" d="M284.06,236.4l4.46-7.71,29.28,16.94-4.46,7.71Z"/><text class="cls-5" transform="translate(72.11 439)">Decent<tspan class="cls-6" x="164.41" y="0">r</tspan><tspan class="cls-7" x="183.43" y="0">alization</tspan></text></svg>