<svg id="Layer_1" data-name="Layer 1" xmlns="http://www.w3.org/2000/svg" viewBox="0 0 500 500"><defs><style>.cls-1{fill:#659ad4;}.cls-2{fill:#457abc;}.cls-3{fill:#5ca664;stroke:#130d0d;stroke-linecap:round;stroke-miterlimit:10;stroke-width:8px;stroke-dasharray:970 20;}.cls-4{fill:#0e9699;}.cls-5{fill:#c93e5a;}.cls-6{fill:#c52733;}.cls-7{fill:#060606;}.cls-8{fill:#222221;}</style></defs><title>logos-1</title><path class="cls-1" d="M399.86,218.18A149.87,149.87,0,1,1,250,68.32,149.86,149.86,0,0,1,399.86,218.18Z"/><path class="cls-2" d="M399.86,218.18A149.83,149.83,0,0,1,139.1,318.93,149.86,149.86,0,0,0,350.75,107.28,149.32,149.32,0,0,1,399.86,218.18Z"/><path class="cls-3" d="M402.49,218.18c0,2.68-.05,5.37-.21,8l-20.82-23.77L344.65,255l-36.81-31.55,15.78-31.55-31.55,5.26-27.56,23.61A41.52,41.52,0,0,0,250,218.18a42.08,42.08,0,0,0-42.07,42.07c0,23.24,42.07,63.1,42.07,63.1a256.81,256.81,0,0,0,29.5-34l7.31,18.25-42.07,36.8-42.07-26.29-26.29-57.84,36.81-57.84-15.77-21,89.39-57.84-68.36-21-12.2-30.45A153.06,153.06,0,0,1,324.88,85.3a41.38,41.38,0,0,0-6.52,22.46c0,23.24,42.07,63.1,42.07,63.1A271.09,271.09,0,0,0,383.82,145,151.16,151.16,0,0,1,402.49,218.18Z"/><path class="cls-4" d="M276.29,297.06l-8.83,7.73c2.63-3.1,5.36-6.42,8-9.89Z"/><path class="cls-4" d="M373.31,134.52a138,138,0,0,1,7.05,14.78,280.28,280.28,0,0,1-19.93,21.56S356,166.65,350,160.23A270.22,270.22,0,0,0,373.31,134.52Z"/><path class="cls-1" d="M402.49,107.76c0,10.72-9,25-18.67,37.28a271.09,271.09,0,0,1-23.39,25.82s-42.07-39.86-42.07-63.1a41.38,41.38,0,0,1,6.52-22.46,42.07,42.07,0,0,1,77.61,22.46Z"/><path class="cls-5" d="M381.46,107.76a21,21,0,1,1-21-21A21,21,0,0,1,381.46,107.76Z"/><path class="cls-5" d="M292.07,260.25c0,8.41-5.53,19-12.57,29.08a256.81,256.81,0,0,1-29.5,34s-42.07-39.86-42.07-63.1A42.08,42.08,0,0,1,250,218.18a41.52,41.52,0,0,1,14.51,2.58A42,42,0,0,1,292.07,260.25Z"/><path class="cls-1" d="M271,260.25a21,21,0,1,1-21-21A21,21,0,0,1,271,260.25Z"/><path class="cls-3" d="M172.17,87l30.5,52.27L181,155.08a23.28,23.28,0,0,0,.63-5.26,42,42,0,0,0-37.07-41.75A153.67,153.67,0,0,1,172.17,87Z"/><path class="cls-5" d="M181.64,149.82a23.28,23.28,0,0,1-.63,5.26c-2.68,12.15-13.67,27.19-23.61,38.86-9.36,10.94-17.83,19-17.83,19A232.27,232.27,0,0,1,105,171a45.14,45.14,0,0,1-7.46-21.19,42.06,42.06,0,0,1,42.06-42.06,38,38,0,0,1,5,.31A42,42,0,0,1,181.64,149.82Z"/><path class="cls-6" d="M381.46,107.76a21,21,0,0,1-40.18,8.62,20.74,20.74,0,0,0,8.63,1.89,21,21,0,0,0,21-21,20.74,20.74,0,0,0-1.89-8.63A21,21,0,0,1,381.46,107.76Z"/><path class="cls-6" d="M292.07,260.25c0,8.41-5.53,19-12.57,29.08a256.81,256.81,0,0,1-29.5,34s-4.42-4.21-10.41-10.62A252.44,252.44,0,0,0,269,278.81c7-10.1,12.57-20.66,12.57-29.08a42,42,0,0,0-7.47-24A42,42,0,0,1,292.07,260.25Z"/><path class="cls-6" d="M181.64,149.82a23.28,23.28,0,0,1-.63,5.26c-2.68,12.15-13.67,27.19-23.61,38.86-9.36,10.94-17.83,19-17.83,19s-4.42-4.2-10.41-10.62c1-.89,8.94-8.62,17.72-18.87,9.94-11.68,20.93-26.72,23.61-38.87a23.2,23.2,0,0,0,.63-5.25,41.56,41.56,0,0,0-7.62-24.09A42,42,0,0,1,181.64,149.82Z"/><path class="cls-3" d="M165.86,202.41l-5.25,42.06-36.81,21-5.42,29.76A152.83,152.83,0,0,1,105,171a232.27,232.27,0,0,0,34.6,41.91s8.47-8,17.83-19Z"/><path class="cls-1" d="M160.61,149.82a21,21,0,1,1-21-21A21,21,0,0,1,160.61,149.82Z"/><path class="cls-2" d="M402.49,107.76c0,10.72-9,25-18.67,37.28a271.09,271.09,0,0,1-23.39,25.82S356,166.65,350,160.23a270.22,270.22,0,0,0,23.3-25.71C383,122.27,392,108,392,97.24a41.43,41.43,0,0,0-7.58-24A41.77,41.77,0,0,1,402.49,107.76Z"/><path class="cls-2" d="M271,260.25a21,21,0,0,1-40.17,8.62,20.67,20.67,0,0,0,8.62,1.9,21,21,0,0,0,21-21,20.67,20.67,0,0,0-1.9-8.62A21,21,0,0,1,271,260.25Z"/><path class="cls-2" d="M160.61,149.82a21,21,0,0,1-40.18,8.63,20.74,20.74,0,0,0,8.63,1.89,21,21,0,0,0,21-21,20.74,20.74,0,0,0-1.89-8.63A21,21,0,0,1,160.61,149.82Z"/><path class="cls-7" d="M360.43,134.05a26.3,26.3,0,1,0-26.3-26.29A26.29,26.29,0,0,0,360.43,134.05Zm0-42.07a15.78,15.78,0,1,1-15.78,15.78A15.77,15.77,0,0,1,360.43,92Z"/><path class="cls-7" d="M407.75,107.76a47.27,47.27,0,0,0-84.47-29.23,157.42,157.42,0,0,0-180.55,24.12c-1-.06-2.07-.15-3.16-.15a47.38,47.38,0,0,0-47.32,47.32,47.93,47.93,0,0,0,7.07,21.85,155.77,155.77,0,0,0-7.07,46.51,157.75,157.75,0,1,0,297.8-72.5C399.45,133.29,407.75,119.15,407.75,107.76ZM360.43,71a36.84,36.84,0,0,1,36.8,36.81c0,15.56-23.94,42.82-36.8,55.74-12.87-12.92-36.81-40.17-36.81-55.74A36.85,36.85,0,0,1,360.43,71ZM170.35,94.34l25.39,43.52-9.16,6.66a47.4,47.4,0,0,0-31-39.19A147.13,147.13,0,0,1,170.35,94.34ZM139.57,113a36.85,36.85,0,0,1,36.81,36.81c0,15.57-23.94,42.83-36.81,55.74-12.87-12.91-36.81-40.16-36.81-55.74A36.86,36.86,0,0,1,139.57,113Zm-32.71,70.53a253.73,253.73,0,0,0,29.1,33.2,5.24,5.24,0,0,0,7.23,0c1.58-1.5,7.51-7.23,14.51-15.06l2.63,2.62-4.61,36.91-34.55,19.73a5.27,5.27,0,0,0-2.57,3.63L116,279.05A147.29,147.29,0,0,1,106.86,183.54ZM250,365.42a147.29,147.29,0,0,1-126.07-71.26l4.6-25.3L163.24,249a5.27,5.27,0,0,0,2.62-3.91l5.26-42.07a5.26,5.26,0,0,0-1.5-4.37l-5-5a109.33,109.33,0,0,0,21-35.36l20.23-14.72a5.26,5.26,0,0,0,1.45-6.91L179.4,89a145.51,145.51,0,0,1,23.8-10.42l10.37,25.88a5.23,5.23,0,0,0,3.34,3.07l57.58,17.72L194.57,177a5.25,5.25,0,0,0-1.36,7.57l13.59,18.12-34.86,54.78a5.26,5.26,0,0,0-.34,5l26.29,57.84a5.2,5.2,0,0,0,2,2.28L242,348.84a5.25,5.25,0,0,0,6.25-.52l42.07-36.81a5.26,5.26,0,0,0,1.42-5.91L285.43,290c6.75-10.16,11.89-20.82,11.89-29.76A47.3,47.3,0,0,0,274,219.54l20.36-17.45,19.93-3.32-11.16,22.32a5.25,5.25,0,0,0,1.28,6.34L341.23,259a5.23,5.23,0,0,0,3.42,1.27,4.87,4.87,0,0,0,.66,0A5.27,5.27,0,0,0,349,258l33-47.08L396.87,228A147.39,147.39,0,0,1,250,365.42Zm36.81-105.17c0,15.56-23.94,42.82-36.81,55.74-12.87-12.92-36.81-40.17-36.81-55.74a36.81,36.81,0,0,1,73.62,0Zm110.23-48-11.63-13.28a5.26,5.26,0,0,0-8.26.45l-33.48,47.85-29.29-25.1,13.94-27.87a5.25,5.25,0,0,0-.48-5.47,5.15,5.15,0,0,0-5.09-2.06L291.2,192a5.13,5.13,0,0,0-2.56,1.19L263.31,214.9a47.24,47.24,0,0,0-60.64,45.35c0,24.78,39.24,62.67,43.71,66.92a5.27,5.27,0,0,0,7.24,0,265.47,265.47,0,0,0,24.53-27.07l2.39,6-36.33,31.78-37.4-23.38-24.46-53.8,35.28-55.44a5.28,5.28,0,0,0-.23-6L205,182.72l84.66-54.78a5.26,5.26,0,0,0-1.31-9.44l-66-20.29L213.33,75.6A147.05,147.05,0,0,1,317.72,87.49a47.09,47.09,0,0,0-4.62,20.27c0,24.77,39.23,62.67,43.71,66.91a5.24,5.24,0,0,0,7.23,0,269,269,0,0,0,18.8-20A147,147,0,0,1,397,212.22Z"/><path class="cls-7" d="M223.71,260.25A26.29,26.29,0,1,0,250,234,26.29,26.29,0,0,0,223.71,260.25Zm42.06,0A15.78,15.78,0,1,1,250,244.47,15.77,15.77,0,0,1,265.77,260.25Z"/><path class="cls-7" d="M165.86,149.82a26.29,26.29,0,1,0-26.29,26.3A26.29,26.29,0,0,0,165.86,149.82Zm-42.06,0a15.78,15.78,0,1,1,15.77,15.78A15.77,15.77,0,0,1,123.8,149.82Z"/><path class="cls-8" d="M117.79,401.42V439h-5V401.42Z"/><path class="cls-8" d="M145.76,418.44a6.21,6.21,0,0,1,2,4.65V439H142.9V424.76a4.34,4.34,0,0,0-1.09-2.86,4,4,0,0,0-3-1.09,5.85,5.85,0,0,0-4.73,2.28,8.9,8.9,0,0,0-1.88,5.82V439h-4.83V417.48h4.37l.31,4.16a8.44,8.44,0,0,1,3.43-3.67,10.29,10.29,0,0,1,5.25-1.32A7.17,7.17,0,0,1,145.76,418.44Z"/><path class="cls-8" d="M170.16,438.84a12.65,12.65,0,0,1-4.08.68,13,13,0,0,1-6.16-1.41,10.14,10.14,0,0,1-4.16-4,11.8,11.8,0,0,1-1.48-5.95,11.13,11.13,0,0,1,1.56-5.9,10.81,10.81,0,0,1,4.16-4,11.67,11.67,0,0,1,5.61-1.4,12.24,12.24,0,0,1,8.16,2.7l-2.44,3.17a10.32,10.32,0,0,0-2.39-1.32,7.58,7.58,0,0,0-2.91-.55,6.66,6.66,0,0,0-3.51,1A6.78,6.78,0,0,0,160,424.5a7.5,7.5,0,0,0-.91,3.69,7.44,7.44,0,0,0,12,5.77l2.5,3A10.74,10.74,0,0,1,170.16,438.84Z"/><path class="cls-8" d="M184.69,398.71V439h-4.83V398.71Z"/><path class="cls-8" d="M213.12,417.48V439h-4.36l-.32-4.11a8.55,8.55,0,0,1-3.38,3.56,9.65,9.65,0,0,1-5.09,1.38,6.83,6.83,0,0,1-4.86-1.79,6.49,6.49,0,0,1-2-4.66v-15.9h4.83v14.19a4.56,4.56,0,0,0,1.07,2.88,3.81,3.81,0,0,0,2.88,1.12,5.34,5.34,0,0,0,3.23-1.06,7.3,7.3,0,0,0,2.31-2.94,9.89,9.89,0,0,0,.86-4.16v-10Z"/><path class="cls-8" d="M223.07,438.63a8.36,8.36,0,0,1-3.5-2.44l2.08-2.81a10.07,10.07,0,0,0,2.72,1.93,6.62,6.62,0,0,0,2.84.67,5.23,5.23,0,0,0,2.8-.67,2.28,2.28,0,0,0,1.1-2.08,2.4,2.4,0,0,0-.68-1.77,4.2,4.2,0,0,0-1.53-1c-.58-.2-1.54-.52-2.89-.93q-5.5-1.77-5.51-6.29a6.22,6.22,0,0,1,2-4.63,7.76,7.76,0,0,1,5.59-1.92,13.23,13.23,0,0,1,4.06.57,10,10,0,0,1,3.27,1.82l-1.92,3a6,6,0,0,0-2.11-1.4,7.07,7.07,0,0,0-2.42-.57,4.31,4.31,0,0,0-2.49.7,2.19,2.19,0,0,0-1,1.9,2.14,2.14,0,0,0,.68,1.63,4.16,4.16,0,0,0,1.4.94c.48.19,1.44.51,2.86,1a10.92,10.92,0,0,1,4.13,2.29,5,5,0,0,1,1.48,3.79,6.74,6.74,0,0,1-2.18,5.15,8.78,8.78,0,0,1-6.19,2A12.46,12.46,0,0,1,223.07,438.63Z"/><path class="cls-8" d="M243.27,407.81a3,3,0,0,1,2-.78,2.9,2.9,0,0,1,2,.78,2.6,2.6,0,0,1,0,3.85,2.9,2.9,0,0,1-2,.78,3,3,0,0,1-2-.78,2.53,2.53,0,0,1,0-3.85Zm4.31,9.67V439h-4.83V417.48Z"/><path class="cls-8" d="M276.48,417.48,265,439.62h-.26l-12-22.14h5.77l6.5,13.72,6-13.72Z"/><path class="cls-8" d="M296.49,433.49l2.24,3.59a15,15,0,0,1-3.72,1.79,12.56,12.56,0,0,1-3.87.65,12.79,12.79,0,0,1-6.26-1.48,10.42,10.42,0,0,1-4.14-4.08,11.84,11.84,0,0,1-1.45-5.88,11,11,0,0,1,1.58-5.79,11.57,11.57,0,0,1,4.34-4.16,12.23,12.23,0,0,1,6-1.53,10.37,10.37,0,0,1,7.05,2.46,12.81,12.81,0,0,1,3.87,6.89l-17.05,6a6.77,6.77,0,0,0,2.52,2.52,7.09,7.09,0,0,0,3.61.91A8.76,8.76,0,0,0,296.49,433.49Zm-10.5-11a7.51,7.51,0,0,0-1.92,5.3,11.77,11.77,0,0,0,.05,1.2l12.53-4.63a7.19,7.19,0,0,0-2.21-2.86,5.74,5.74,0,0,0-3.56-1.09A6.39,6.39,0,0,0,286,422.52Z"/><path class="cls-8" d="M326.54,418.44a6.17,6.17,0,0,1,2,4.65V439h-4.88V424.76a4.39,4.39,0,0,0-1.09-2.86,4,4,0,0,0-3-1.09,5.87,5.87,0,0,0-4.73,2.28,9,9,0,0,0-1.87,5.82V439h-4.83V417.48h4.36l.32,4.16A8.44,8.44,0,0,1,316.3,418a10.29,10.29,0,0,1,5.25-1.32A7.17,7.17,0,0,1,326.54,418.44Z"/><path class="cls-8" d="M352.27,433.49l2.23,3.59a14.86,14.86,0,0,1-3.72,1.79,12.56,12.56,0,0,1-3.87.65,12.79,12.79,0,0,1-6.26-1.48,10.39,10.39,0,0,1-4.13-4.08,11.84,11.84,0,0,1-1.46-5.88,11,11,0,0,1,1.59-5.79,11.42,11.42,0,0,1,4.34-4.16,12.18,12.18,0,0,1,6-1.53,10.37,10.37,0,0,1,7,2.46,12.69,12.69,0,0,1,3.87,6.89l-17.05,6a6.92,6.92,0,0,0,2.52,2.52,7.11,7.11,0,0,0,3.62.91A8.76,8.76,0,0,0,352.27,433.49Zm-10.5-11a7.47,7.47,0,0,0-1.93,5.3,11.77,11.77,0,0,0,.05,1.2l12.53-4.63a7.19,7.19,0,0,0-2.21-2.86,5.74,5.74,0,0,0-3.56-1.09A6.38,6.38,0,0,0,341.77,422.52Z"/><path class="cls-8" d="M365.49,438.63a8.45,8.45,0,0,1-3.51-2.44l2.08-2.81a10.27,10.27,0,0,0,2.73,1.93,6.62,6.62,0,0,0,2.84.67,5.25,5.25,0,0,0,2.8-.67,2.28,2.28,0,0,0,1.09-2.08,2.39,2.39,0,0,0-.67-1.77,4.16,4.16,0,0,0-1.54-1c-.57-.2-1.53-.52-2.88-.93q-5.51-1.77-5.51-6.29a6.22,6.22,0,0,1,2-4.63,7.76,7.76,0,0,1,5.59-1.92,13.16,13.16,0,0,1,4.05.57,9.94,9.94,0,0,1,3.28,1.82l-1.93,3a5.86,5.86,0,0,0-2.1-1.4,7.12,7.12,0,0,0-2.42-.57,4.31,4.31,0,0,0-2.49.7,2.28,2.28,0,0,0-.37,3.53,4.19,4.19,0,0,0,1.41.94c.48.19,1.43.51,2.86,1a11,11,0,0,1,4.13,2.29,5,5,0,0,1,1.48,3.79,6.74,6.74,0,0,1-2.18,5.15,8.78,8.78,0,0,1-6.19,2A12.46,12.46,0,0,1,365.49,438.63Z"/><path class="cls-8" d="M386.7,438.63a8.33,8.33,0,0,1-3.51-2.44l2.08-2.81a10.27,10.27,0,0,0,2.73,1.93,6.58,6.58,0,0,0,2.83.67,5.27,5.27,0,0,0,2.81-.67,2.28,2.28,0,0,0,1.09-2.08,2.39,2.39,0,0,0-.67-1.77,4.32,4.32,0,0,0-1.54-1c-.57-.2-1.53-.52-2.88-.93-3.68-1.18-5.51-3.28-5.51-6.29a6.19,6.19,0,0,1,2-4.63,7.73,7.73,0,0,1,5.59-1.92,13.2,13.2,0,0,1,4,.57,9.94,9.94,0,0,1,3.28,1.82l-1.93,3a5.86,5.86,0,0,0-2.1-1.4,7.12,7.12,0,0,0-2.42-.57,4.31,4.31,0,0,0-2.49.7,2.27,2.27,0,0,0-.37,3.53,4.26,4.26,0,0,0,1.4.94c.49.19,1.44.51,2.86,1a11,11,0,0,1,4.14,2.29,5,5,0,0,1,1.48,3.79,6.71,6.71,0,0,1-2.19,5.15,8.73,8.73,0,0,1-6.18,2A12.42,12.42,0,0,1,386.7,438.63Z"/></svg>